/* XPM */
static char *result[] = {
/* columns rows colors chars-per-pixel */
"54 64 167 2 ",
"   c #000000",
".  c #0C0606",
"X  c #090803",
"o  c #140B0B",
"O  c #170A09",
"+  c #1B1606",
"@  c #0D0D1D",
"#  c #11191E",
"$  c #230A0A",
"%  c #20170C",
"&  c #211311",
"*  c #291616",
"=  c #2C1F11",
"-  c #271914",
";  c #381E18",
":  c #2E270E",
">  c #32290E",
",  c #2C2011",
"<  c #38251D",
"1  c #362717",
"2  c #15182A",
"3  c #1B1B3B",
"4  c #231E39",
"5  c #3D2020",
"6  c #37342F",
"7  c #47331B",
"8  c #48321C",
"9  c #6E1E20",
"0  c #442E24",
"q  c #562121",
"w  c #532C2C",
"e  c #592F2F",
"r  c #582121",
"t  c #652627",
"y  c #6E2121",
"u  c #672728",
"i  c #662828",
"p  c #692828",
"a  c #752B2B",
"s  c #792626",
"d  c #68322E",
"f  c #6D3333",
"g  c #6C3939",
"h  c #753D3D",
"j  c #713636",
"k  c #76433B",
"l  c #1E2046",
"z  c #23234C",
"x  c #2A2959",
"c  c #2B3149",
"v  c #2F2E65",
"b  c #2E3060",
"n  c #303067",
"m  c #31326D",
"M  c #373677",
"N  c #35387B",
"B  c #3A3A7B",
"V  c #363779",
"C  c #553A59",
"Z  c #773F40",
"A  c #783F40",
"S  c #7C3859",
"D  c #67344D",
"F  c #443A6C",
"G  c #354C5C",
"H  c #495855",
"J  c #764040",
"K  c #794141",
"L  c #564D7D",
"P  c #504979",
"I  c #614D70",
"U  c #8A2E2E",
"Y  c #823F27",
"T  c #853232",
"R  c #943030",
"E  c #9D3232",
"W  c #9B3C3C",
"Q  c #A22F2F",
"!  c #A23433",
"~  c #A83837",
"^  c #B43636",
"/  c #BF3637",
"(  c #BF3738",
")  c #B43939",
"_  c #BE3838",
"`  c #C53836",
"'  c #C13738",
"]  c #C13838",
"[  c #C83F3A",
"{  c #824E3F",
"}  c #87543A",
"|  c #8B5538",
" . c #945F38",
".. c #BE4638",
"X. c #B04838",
"o. c #BE4F38",
"O. c #A54A3B",
"+. c #956038",
"@. c #A1783C",
"#. c #A0773B",
"$. c #CC423C",
"%. c #C14738",
"&. c #D64D3F",
"*. c #D64A3E",
"=. c #C3503C",
"-. c #CD5C3F",
";. c #C4663E",
":. c #833952",
">. c #844B44",
",. c #894F49",
"<. c #874C48",
"1. c #875544",
"2. c #91554C",
"3. c #975E53",
"4. c #976441",
"5. c #9A6740",
"6. c #9D6B41",
"7. c #8D6E54",
"8. c #906F54",
"9. c #9A6255",
"0. c #AB7A42",
"q. c #A77640",
"w. c #DB4F40",
"e. c #DD5140",
"r. c #EE5F45",
"t. c #F76748",
"y. c #F96848",
"u. c #A58932",
"i. c #AA843A",
"p. c #AE8A39",
"a. c #A38632",
"s. c #B69637",
"d. c #B99836",
"f. c #B69538",
"g. c #B99738",
"h. c #B6983C",
"j. c #B89938",
"k. c #AD994C",
"l. c #A69A5B",
"z. c #DABA49",
"x. c #D1B144",
"c. c #D7B152",
"v. c #D58E6E",
"b. c #D7906E",
"n. c #D78F70",
"m. c #DA9171",
"M. c #E9C950",
"N. c #E4C350",
"B. c #F9D958",
"V. c #47548B",
"C. c #485D86",
"Z. c #556D9D",
"A. c #576FA1",
"S. c #6C8C97",
"D. c #5F89A6",
"F. c #628CA7",
"G. c #6E9CBA",
"H. c #7CA0AC",
"J. c #72A0BC",
"K. c #7EA3B0",
"L. c #71A2C3",
"P. c #75A8C8",
"I. c #ECB288",
"U. c #F2B689",
"Y. c #F4BD90",
"T. c #FCC493",
"R. c None",
/* pixels */
"R.R.R.R.R.R.R.R.R.R.R.R.R.p u p p p p t p p p u p p p u p p u u p p p p u u p p p R.R.R.R.R.R.R.R.R.R.R.R.R.",
"R.R.R.R.R.R.R.R.R.R.R.R.R.p u p p p p p p p p u p u p p u p p p p u u p p p p u p R.R.R.R.R.R.R.R.R.R.R.R.R.",
"R.R.R.R.R.R.R.R.R.R.R.R.R.R.u u p p t p t t t t t t p t u u p p t t t u p u u u R.R.R.R.R.R.R.R.R.R.R.R.R.R.",
"R.R.R.R.R.R.R.R.R.R.p p u U ! E ! =.=.=.o.=.=.=.=.=.=.=.=.=.=.=.=.=.=.=.=.! E ! U i p p R.R.R.R.R.R.R.R.R.R.",
"R.R.R.R.R.R.R.R.R.R.p p u R ] ] $.y.y.y.y.y.y.y.y.y.y.y.y.y.y.y.y.y.y.y.y.[ _ ` R t u u R.R.R.R.R.R.R.R.R.R.",
"R.R.R.R.R.R.R.R.R.R.p p i R ] _ $.t.y.y.y.y.y.y.y.y.y.y.y.y.y.y.y.y.y.y.y.$.( ] R p u u R.R.R.R.R.R.R.R.R.R.",
"R.R.R.R.R.R.R.R.R.R.p p p E *.$.&.t.y.y.y.y.t.y.y.y.y.y.y.y.y.y.y.y.y.t.y.*.$.*.E p p p R.R.R.R.R.R.R.R.R.R.",
"R.R.R.R.R.R.R.R.R.R.p p p X.y.y.y.y.y.y.y.y.y.y.y.y.y.y.y.y.y.y.y.y.y.y.y.y.y.y.X.t p p R.R.R.R.R.R.R.R.R.R.",
"R.R.R.R.R.R.R.R.R.R.p p t X.y.y.y.y.y.y.y.t.t.y.t.y.y.y.y.y.t.y.y.y.y.y.y.y.y.y.X.u p p R.R.R.R.R.R.R.R.R.R.",
"R.R.R.R.R.R.R.R.R.R.p p p X.y.y.t.y.t.y.y.y.y.y.y.y.t.t.t.t.y.y.y.y.y.y.y.y.y.y.X.p p p R.R.R.R.R.R.R.R.R.R.",
"R.R.R.R.R.R.R.p p p ~ ^ ^ *.y.y.y.y.y.t.y.y.y.y.y.t.y.y.y.y.y.y.y.y.y.y.y.y.y.y.&.^ ) ~ p p p R.R.R.R.R.R.R.",
"R.R.R.R.R.R.R.p p p ^ ' / r.y.y.t.y.y.y.y.t.y.t.t.y.t.y.y.t.y.y.y.y.y.y.y.y.y.y.&.] ` ^ p p p R.R.R.R.R.R.R.",
"R.R.R.R.R.R.R.p p p ^ ] / &.y.y.t.t.y.y.y.t.t.y.y.t.y.y.y.y.y.y.y.t.y.y.y.y.y.y.e./ ] ^ p p p R.R.R.R.R.R.R.",
"R.R.R.R.R.R.R.p t p ^ ] / $.e.&.e.t.y.t.y.y.y.y.y.t.t.y.y.y.y.y.y.y.y.y.y.e.&.w.$.] ' ~ p p p R.R.R.R.R.R.R.",
"R.R.R.R.R.R.R.p p p ^ _ ] _ ' / $.t.y.y.t.y.y.y.y.y.y.y.y.y.y.y.t.y.y.y.t.[ / / _ ] ] ^ p p p R.R.R.R.R.R.R.",
"R.R.R.R.R.R.R.p p p ^ ] ] ] ] _ %.t.y.y.y.y.y.y.y.y.y.y.y.y.y.y.y.y.y.y.t.$.( ( ] ] ] ^ p p p R.R.R.R.R.R.R.",
"R.R.R.R.R.R.R.q q r ^ ' / ] _ ] [ r.r.r.r.r.r.r.r.r.r.r.r.r.r.r.r.r.r.r.r.[ ] _ / ] ( ^ r q q R.R.R.R.R.R.R.",
"R.R.R.R.R.R.R.    . Q ' _ ] ] ] / ] ] ] ] ] ] ] ] ] ] ] ] ] ] ] ] ] ] ] _ ] ] ] ] ] ] Q .     R.R.R.R.R.R.R.",
"R.R.R.R.R.R.R.      Q / ] ] ] _ ] ] _ _ _ ] ] ] _ ] ( ] ] ] ] ] ] ] _ ] ] / ] / _ ] ` Q       R.R.R.R.R.R.R.",
"R.R.R.R.R.R.R.      Q / ] _ / ] _ ] ] ] ] ] _ ] ] ( ] ' ] _ _ ] ] _ ] ] _ ] ] ] _ ] ] Q       R.R.R.R.R.R.R.",
"R.R.R.R.R.R.R.      p U a E ] ] ' ' ' ' ] ] _ ] ' ' ' ( ] ( ( ] ] ] _ ] ] _ ] ' E a T t .     R.R.R.R.R.R.R.",
"R.R.R.R.R.R.R.      r p u R ] ] ] _ ' ' _ ] ' ' ' ' ' ' ( ] ] ] _ ] _ ] ] ] ] ] R t p r       R.R.R.R.R.R.R.",
"R.R.R.R.R.R.R.      r p t R ` ] ] ] ] _ ] ] _ ] [ [ ` [ ` ] ] ] _ ] ] ] _ ] ] ` R p t r       R.R.R.R.R.R.R.",
"R.R.R.R.R.R.% 7 8 8 d f f T E E ! _ ] _ ] ] ] Q y 9 9 y y y Q ] ] ' ] _ / ! E E T f f p 8 8 8 & R.R.R.R.R.R.",
"R.R.R.      = 0.0.0.>.A K j t t a _ _ ' ' ' ] s             s ` ] / ] ' _ a p t f K K K k.@.0.=       R.R.R.",
"R.R.R.      = 0.0.@.>.A A j u u a _ _ ' ' ' [ s             s ` _ ] ] ] _ s t p f K K >.q.@.@.=       R.R.R.",
"R.R.R.      , 0.0.q.k g g f p p a ^ ^ ^ ^ ^ / s .   . . X   s _ ^ ^ ^ ^ ^ a i p f g g k 0.0.0.;       R.R.R.",
"R.R.R.      < m.v.v.-     0 K K h p p a a p p p t t t t t t p p p a a p a h k K 5   X - v.n.m.5       R.R.R.",
"R.R.R.      < m.m.v.&     5 K K h p p p p p p p t p p p p p u u p p u p u h k K <     & v.m.m.<       R.R.R.",
"R.R.R.      < m.m.v.&     5 K K h p p p p p p 9 p t p p p p u u u u p p u h K K 5     & n.m.m.<       R.R.R.",
"R.R.R.R.R.R.R.0 0 0 .     5 K K k h j j |  . .| j j j j h j } +. .| h j j A K >.5     . 0 0 0 R.R.R.R.R.R.R.",
"R.R.R.R.R.R.R.            5 K K k k :.k +.k.@.+.A K K K K K 4.0.0.6.K K K A A A 5             R.R.R.R.R.R.R.",
"R.R.R.R.R.R.R.            0 K K K K K K 6.0.0.5.Z Z Z K K J +.0.0.6.K K K K K >.5             R.R.R.R.R.R.R.",
"R.R.R.R.R.R.R.            * w w e w w w } 6.+.1.Z K K K K K 1.4.5.} w w w w w w *             R.R.R.R.R.R.R.",
"R.R.R.R.R.R.R.R.R.R.                    e K Z Z K K K K K K Z Z K e                     R.R.R.R.R.R.R.R.R.R.",
"R.R.R.R.R.R.R.R.R.R.                    e K K Z Z k k K K K K J K e                     R.R.R.R.R.R.R.R.R.R.",
"R.R.R.R.R.R.R.R.R.R.  .   .   . X X X X w Z h Z h Z g Z Z h h Z h e X X . X   X         R.R.R.R.R.R.R.R.R.R.",
"R.R.R.R.R.R.R.      v m m C g g k a.u.u.> . . . . . . . . . . . . > u.u.a.k g g ;             R.R.R.R.R.R.R.",
"R.R.R.R.R.R.R.      v N B C K K { s.j.j.:                         : j.j.h.} Z K 5             R.R.R.R.R.R.R.",
"R.R.R.R.R.R.R.      v N B C K K { h.j.j.:                         : g.h.f.>.Z K ;             R.R.R.R.R.R.R.",
"R.R.R.R.K h 1.8.8.8.P V N D ~ W O.s.j.j.Y 9 y y y y y y y s y y 9 } s.s.h.O.~ ~ D l l c 7.7.7.1.Z Z R.R.R.R.",
"R.R.R.Z K h 9.T.T.Y.P M N :.] ] %.g.j.j.=.` [ ` ` ] ` ] ` ` ] ] ` =.s.s.g.%.( ` S N B L T.T.T.9.h K K R.R.R.",
"R.R.R.K K Z 9.T.T.Y.L V N S ] ( ..g.j.j.o.) ] / / / / / ] ( / _ / %.d.d.d...' ` S N M L Y.T.T.9.h K K R.R.R.",
"R.R.R.K Z Z 3.U.U.I.I F F :.] ] ..i.i.i.;.w.;.w.-.-.-.=.w.;.w.;.-.;.i.i.i.../ ` :.F F I I.U.U.3.Z K K R.R.R.",
"R.R.R.h K h 2.n.n.v.,.Z k W ' ' ) K K J c.B.B.B.B.B.B.B.B.B.B.B.B.c.A A K ) ] ` W Z Z <.v.n.m.2.Z K K R.R.R.",
"R.R.R.K K Z 2.m.m.v.<.Z k W ' ' ) K K K c.B.B.B.B.B.B.B.B.B.B.B.B.c.Z A K ) ] ] W Z K <.v.n.m.2.h K K R.R.R.",
"R.R.R.K K Z 2.n.n.v.<.K h W _ _ ) K k K c.B.B.B.B.B.B.B.B.B.B.B.B.c.k A k ^ ' ' W K h <.v.b.n.2.h K K R.R.R.",
"R.R.R.R.R.R.R.,.,.<.* o o O $ $ ; i.i.p.N.B.B.B.B.B.B.B.B.B.B.B.B.M.p.p.i.; $ $ O o o * <.,.,.R.R.R.R.R.R.R.",
"R.R.R.R.R.R.R.Z k Z .           + s.s.j.M.B.B.B.B.B.B.B.B.B.B.B.B.M.j.j.s.+           . h Z Z R.R.R.R.R.R.R.",
"R.R.R.R.R.R.R.K Z h o           + s.j.j.M.B.B.B.B.B.B.B.B.B.B.B.B.M.j.j.s.+           o Z K K R.R.R.R.R.R.R.",
"R.R.R.R.R.R.R.K A Z 4 3 3 c G G H s.j.s.x.z.z.z.z.z.z.z.z.z.z.z.z.x.g.j.f.H G G c 3 3 4 Z Z K R.R.R.R.R.R.R.",
"R.R.R.R.R.R.R.R.R.R.B B M A.P.P.K.h.j.j.j.s.s.s.s.g.s.j.s.s.s.g.s.j.g.g.h.K.P.P.A.V B B R.R.R.R.R.R.R.R.R.R.",
"R.R.R.R.R.R.R.R.R.R.V V M Z.L.L.H.j.j.d.j.g.j.j.j.j.j.j.j.j.j.j.j.h.g.j.h.H.L.L.Z.M V V R.R.R.R.R.R.R.R.R.R.",
"R.R.R.R.R.R.R.R.R.R.n M v C.D.D.S.k.k.k.h.g.j.g.p.p.p.f.p.p.j.j.j.h.k.k.k.S.D.F.C.v n n R.R.R.R.R.R.R.R.R.R.",
"R.R.R.R.R.R.R.R.R.R.    X     . 2 G.J.J.l.j.j.@.k K K K K K @.j.g.l.J.J.G.2   X .       R.R.R.R.R.R.R.R.R.R.",
"R.R.R.R.R.R.R.R.R.R.            # G.L.J.l.d.j.@.J J K K J J @.j.j.l.J.J.G.2             R.R.R.R.R.R.R.R.R.R.",
"R.R.R.R.R.R.R.R.R.R.            # G.J.L.l.d.j.@.Z K K K K Z @.j.j.l.L.L.J.#             R.R.R.R.R.R.R.R.R.R.",
"R.R.R.R.R.R.R.R.R.R.      2 x x n V.V.V.6 > > , & * O & & & , > > 6 V.V.V.b x x 2       R.R.R.R.R.R.R.R.R.R.",
"R.R.R.R.R.R.R.R.R.R.      3 B V B M M M @                         @ V V V B V B 3       R.R.R.R.R.R.R.R.R.R.",
"R.R.R.R.R.R.R.R.R.R.      l B B B B V B @                         @ B B B B B B 3       R.R.R.R.R.R.R.R.R.R.",
"R.R.R.R.R.R.R.R.R.R.      2 z z z z z z @                         @ z z z z z z 2       R.R.R.R.R.R.R.R.R.R.",
"R.R.R.R.R.R.R.R.R.R.R.R.R.R.            R.R.R.R.R.R.R.R.R.R.R.R.R.R.            R.R.R.R.R.R.R.R.R.R.R.R.R.R.",
"R.R.R.R.R.R.R.R.R.R.R.R.R.              R.R.R.R.R.R.R.R.R.R.R.R.R.R.              R.R.R.R.R.R.R.R.R.R.R.R.R.",
"R.R.R.R.R.R.R.R.R.R.R.R.R.              R.R.R.R.R.R.R.R.R.R.R.R.R.R.              R.R.R.R.R.R.R.R.R.R.R.R.R."
};
