/* XPM */
static char *result[] = {
/* columns rows colors chars-per-pixel */
"54 64 182 2 ",
"   c #000000",
".  c #0B0605",
"X  c #0E0907",
"o  c #140C0A",
"O  c #170807",
"+  c #090B14",
"@  c #0D0D1D",
"#  c #151719",
"$  c #0F1619",
"%  c #2C0C0D",
"&  c #211211",
"*  c #2A1C13",
"=  c #281618",
"-  c #321313",
";  c #3B1515",
":  c #281D0F",
">  c #36241B",
",  c #0E0F24",
"<  c #15182A",
"1  c #1B1B3B",
"2  c #231E39",
"3  c #1D2834",
"4  c #1A252D",
"5  c #28282F",
"6  c #2A253A",
"7  c #3E3124",
"8  c #521818",
"9  c #403123",
"0  c #5B3D2F",
"q  c #55332A",
"w  c #652627",
"e  c #662728",
"r  c #652828",
"t  c #682828",
"y  c #692524",
"u  c #7B2A2A",
"i  c #76342D",
"p  c #643535",
"a  c #6E3B37",
"s  c #753E3F",
"d  c #5D4835",
"f  c #1F2046",
"g  c #23234C",
"h  c #202044",
"j  c #29354A",
"k  c #2A2A5B",
"l  c #3A2D42",
"z  c #2F2E65",
"x  c #2E3060",
"c  c #323065",
"v  c #363577",
"b  c #353678",
"n  c #36387A",
"m  c #39397A",
"M  c #3A3877",
"N  c #743E41",
"B  c #7E3956",
"V  c #4D386E",
"C  c #4C376C",
"Z  c #483A73",
"A  c #354D5C",
"S  c #494653",
"D  c #754041",
"F  c #784040",
"G  c #7A5346",
"H  c #41417F",
"J  c #494277",
"K  c #594C79",
"L  c #5D4A61",
"P  c #735C79",
"I  c #456377",
"U  c #833624",
"Y  c #9A3433",
"T  c #863330",
"R  c #A22F2F",
"E  c #BF302E",
"W  c #A53636",
"Q  c #B33636",
"!  c #BE3535",
"~  c #BF3738",
"^  c #BE383A",
"/  c #C03534",
"(  c #C13838",
")  c #C53A37",
"_  c #825D32",
"`  c #B04838",
"'  c #A7773F",
"]  c #CC423C",
"[  c #D64B3E",
"{  c #C3503C",
"}  c #803857",
"|  c #844A46",
" . c #864C47",
".. c #92554D",
"X. c #8C584D",
"o. c #9A6254",
"O. c #906F54",
"+. c #8D6E54",
"@. c #AB7A41",
"#. c #A76758",
"$. c #A86858",
"%. c #A26657",
"&. c #A9715F",
"*. c #B87C5B",
"=. c #8A6777",
"-. c #98606D",
";. c #BA7761",
":. c #BD7B63",
">. c #BA6571",
",. c #DD5140",
"<. c #DB4F40",
"1. c #ED5E44",
"2. c #E25542",
"3. c #F05E45",
"4. c #F86645",
"5. c #F76748",
"6. c #F96848",
"7. c #FC6846",
"8. c #F0664C",
"9. c #CA5E61",
"0. c #C96063",
"q. c #CA7C73",
"w. c #F57F68",
"e. c #BD8355",
"r. c #BD8172",
"t. c #CA8469",
"y. c #CE896B",
"u. c #C28165",
"i. c #D48D6E",
"p. c #D48E71",
"a. c #DA9171",
"s. c #DA9675",
"d. c #D9906E",
"f. c #EB8B6F",
"g. c #404783",
"h. c #47548B",
"j. c #485D86",
"k. c #56548B",
"l. c #58769E",
"z. c #7A7B84",
"x. c #576FA1",
"c. c #7D7EAB",
"v. c #B77D8F",
"b. c #8B7EA6",
"n. c #CF7A80",
"m. c #618BA6",
"M. c #6D9CBC",
"N. c #6993B8",
"B. c #71A2C2",
"V. c #75A8C8",
"C. c #BB9588",
"Z. c #BF988B",
"A. c #B78396",
"S. c #8081B0",
"D. c #B494AD",
"F. c #B49AB4",
"G. c #B38EA6",
"H. c #D18289",
"J. c #D18087",
"K. c #CF828A",
"L. c #F69B8C",
"P. c #E88F85",
"I. c #EEB186",
"U. c #EDB388",
"Y. c #F4BA8C",
"T. c #F3BD90",
"R. c #FAC291",
"E. c #FFC894",
"W. c #B0B0CF",
"Q. c #AFB3D4",
"!. c #B1B2D2",
"~. c #B4B7D8",
"^. c #CBB2C5",
"/. c #C7C9E3",
"(. c #D5D5EA",
"). c #D2D1E7",
"_. c #DEDEF1",
"`. c #DDE1F5",
"'. c #E9EAFA",
"]. c #E6E6F6",
"[. c #EFF2FF",
"{. c None",
/* pixels */
"{.{.{.{.{.{.{.{.{.{.{.{.{.t t e t t t t t t t t t w t t t t r t t t t t t t t t t {.{.{.{.{.{.{.{.{.{.{.{.{.",
"{.{.{.{.{.{.{.{.{.{.{.{.{.t t t t t t t t t t t t t t t t r t t t r t t e t t r t {.{.{.{.{.{.{.{.{.{.{.{.{.",
"{.{.{.{.{.{.{.{.{.{.{.{.{.{.e e t t w q w w w w w w w w r r r r t t r r w t r r {.{.{.{.{.{.{.{.{.{.{.{.{.{.",
"{.{.{.{.{.{.{.{.{.{.t t t T R Y W ` { <.{ { { { { { { { ` <.` <.{ { { { { W R Y T e t t {.{.{.{.{.{.{.{.{.{.",
"{.{.{.{.{.{.{.{.{.{.t t e Y ! ( ] 5.6.6.6.6.6.6.7.6.6.6.6.6.6.6.6.7.7.6.6.] ~ ( Y w w w {.{.{.{.{.{.{.{.{.{.",
"{.{.{.{.{.{.{.{.{.{.t t e Y ( ! ) 6.6.6.6.5.6.5.6.6.6.6.6.6.6.6.6.6.6.5.6.] ~ ( Y e w w {.{.{.{.{.{.{.{.{.{.",
"{.{.{.{.{.{.{.{.{.{.t t t Y ] ] <.6.6.6.6.6.6.6.6.6.6.6.6.6.6.6.6.6.6.5.5.[ ] [ Y t t t {.{.{.{.{.{.{.{.{.{.",
"{.{.{.{.{.{.{.{.{.{.t t e ` 7.7.6.6.6.6.6.6.6.6.6.6.6.6.6.6.6.6.6.6.6.6.6.6.6.7.` y t t {.{.{.{.{.{.{.{.{.{.",
"{.{.{.{.{.{.{.{.{.{.t t t ` 7.6.6.6.5.5.6.6.6.6.6.5.5.6.6.6.5.6.6.6.6.6.6.6.6.6.` t t t {.{.{.{.{.{.{.{.{.{.",
"{.{.{.{.{.{.{.{.{.{.t t t ` 6.6.5.6.6.6.6.5.6.6.5.6.6.6.5.5.6.6.6.6.6.6.6.6.6.6.` t i t {.{.{.{.{.{.{.{.{.{.",
"{.{.{.{.{.{.{.t t t W Q Q ,.6.6.6.5.6.5.5.6.6.6.6.6.6.5.6.6.6.5.6.6.6.6.6.6.6.6.[ Q Q W t t t {.{.{.{.{.{.{.",
"{.{.{.{.{.{.{.t t t Q ) ^ ,.6.6.6.5.6.6.6.6.6.6.6.5.6.5.6.5.6.5.6.6.6.6.6.6.6.7.,.^ ^ Q t t t {.{.{.{.{.{.{.",
"{.{.{.{.{.{.{.t t t Q ( ^ ,.6.6.6.6.6.5.5.6.7.5.6.5.6.6.6.6.6.6.6.6.5.6.5.6.7.7.[ ( ( Q t t t {.{.{.{.{.{.{.",
"{.{.{.{.{.{.{.- - - Q ( ^ ] ,.[ ,.5.6.6.6.5.5.5.5.6.6.5.6.6.5.6.6.6.6.6.6.,.[ [ ] ( ) W ; - - {.{.{.{.{.{.{.",
"{.{.{.{.{.{.{.      R ( ( ^ ( ! ) 5.6.6.6.6.5.5.7.5.6.5.6.6.6.6.5.6.6.6.5.( ^ ~ ( ( ( R       {.{.{.{.{.{.{.",
"{.{.{.{.{.{.{.      R ( ( ( ( ( ] 6.6.7.6.6.7.5.5.5.5.7.6.6.6.6.6.6.6.6.5.] ^ ^ ( ( ( R       {.{.{.{.{.{.{.",
"{.{.{.{.{.{.{.      R ( ( ( ( ( ) 1.1.1.1.1.1.8.f.w.w.w.w.w.6.3.3.1.1.1.1.) ( ( ( ( ( R       {.{.{.{.{.{.{.",
"{.{.{.{.{.{.{.    . R ) ( ( ^ ( ( ( ( ( ( ( / J.'.].].].].'.q./ ( ( ( ( ( ( ( ( ( ( ( R       {.{.{.{.{.{.{.",
"{.{.{.{.{.{.{.      R ( ( ( ( ( ( ^ ( ( ( ( / q.'.'.'.].].'.n./ ( ( ^ ( ( ( ( ( ( ( ( R .     {.{.{.{.{.{.{.",
"{.{.{.{.{.{.{.      R ~ ! ( ^ ( ( ( ( ( ( ( ( n.'.].].].'.'.n./ ( ( ( ( ( ( ( ( ( ( ) R       {.{.{.{.{.{.{.",
"{.{.{.{.    : _ _ _ T u u -.F.D.A.( ^ ( v.D.F.v.9.9.9.0.0.9.A.D.D.v.( ^ ^ G.F.F.-.u u i _ _ _ :     {.{.{.{.",
"{.{.{.      * @.' ' i w w =.~.!.W.( ( / D.!.~.A./ ! ! ! ! / A.~.Q.D.( ( ^ F.!.~.=.w t i ' ' @.>       {.{.{.",
"{.{.{.      : ' ' ' i t y =.~.~.F./ ! ! G.Q.Q.v./ / / / ! E v.!.Q.D.! ! ^ F.~.~.=.y t i ' ' ' *       {.{.{.",
"{.{.{.      > e.e.*.q ; ; L c.c.b.n.H.K.^././.^.H.H.n.H.H.n.^././.^.H.n.K.b.c.b.L - ; q e.e.e.>       {.{.{.",
"{.{.{.      > a.a.i.&     1 M v k.`.'.'.'.'.'.'.'.'.'.'.'.'.'.'.'.'.'.'.].h.v b 1     & i.a.a.>       {.{.{.",
"{.{.{.      > s.a.i.&     1 m b k.].'.'.'.'.].'.'.'.'.'.].].'.'.'.'.'.'.].k.b m 1     & i.a.s.>       {.{.{.",
"{.{.{.      > u.r.:.* . . h J Z k.).(.(.(.(.(.(.(.(.(.(.(.(.(.(.).(.(.(.(.k.Z J 6 . . * e.u.u.>       {.{.{.",
"{.{.{.{.{.{.{.X . . p s s %.p.p.r.g.H H H H H g.g.g.Z g.H H H g.H H H H g.r.p.p.o.s s p + . . {.{.{.{.{.{.{.",
"{.{.{.{.{.{.{.      p F N $.a.a.t.m b M b M M M M M M M b M m M n n n n Z r.s.a.#.s N p       {.{.{.{.{.{.{.",
"{.{.{.{.{.{.{.      p N s $.a.a.r.b b v b m M M b b b M b b M M n n n n M r.a.a.#.s N p       {.{.{.{.{.{.{.",
"{.{.{.{.{.{.{.      o.:.;.t.a.i.p.Z.C.Z.l , , S Z.Z.C.C.C.Z.S , $ l K.C.Z.p.a.a.t.*.:.o.      {.{.{.{.{.{.{.",
"{.{.{.{.{.{.{.    . e.s.a.a.a.a.s.E.R.E.9     d E.T.R.R.R.E.d     9 R.R.R.s.p.a.a.a.a.:..     {.{.{.{.{.{.{.",
"{.{.{.{.{.{.{.      *.a.a.p.d.a.s.T.R.R.7     d R.R.R.T.T.E.d     7 R.R.R.s.a.i.d.a.a.*.      {.{.{.{.{.{.{.",
"{.{.{.{.{.{.{.    . $.;.;.t.a.a.s.I.I.I.0 = o G E.R.T.R.T.E.G & & d I.I.I.a.a.a.q.*.*.#..     {.{.{.{.{.{.{.",
"{.{.{.{.{.{.{.{.{.{.s F s #.a.a.d.d.i.a...F s &.R.T.R.T.R.R.&.N F ..a.a.i.a.a.a.#.s D F {.{.{.{.{.{.{.{.{.{.",
"{.{.{.{.{.{.{.{.{.{.F N s #.a.a.a.a.a.a...N s &.R.R.R.T.R.R.$.s s ..a.i.a.i.a.a.$.s F F {.{.{.{.{.{.{.{.{.{.",
"{.{.{.{.{.{.{.{.{.{.D D N o.i.y.y.i.i.i...F F &.R.Y.R.Y.Y.R.&.s F ..i.i.i.y.y.y.%.N D F {.{.{.{.{.{.{.{.{.{.",
"{.{.{.{.{.{.{.      c Z Z g o o = | F | :.i.y.i.s.a.s.s.s.s.d.y.i.*.| | | = o o g Z M c       {.{.{.{.{.{.{.",
"{.{.{.{.{.{.{.      z n m 3     o s s s u.a.d.d.a.a.d.d.d.a.a.d.a.:.D D s o     1 m n c       {.{.{.{.{.{.{.",
"{.{.{.{.{.{.{.      z m m 1     X D F F u.f.s.s.s.s.f.s.s.s.a.s.a.q.s s s o     1 m m z       {.{.{.{.{.{.{.",
"{.{.{.{.F N  .O.O.+.Z n m z h f l Y W W a 0 0 0 0 0 0 0 0 0 0 0 0 a W W Y l g g z m n J +.O.O. .s F {.{.{.{.",
"{.{.{.F F s o.E.E.R.K n b n m m V ( ( ( =                         % ( ^ ^ V n m n n b K R.E.E.o.s F F {.{.{.",
"{.{.{.F s s o.R.R.T.K v b M M n V ^ ( ( %                         % ( ( ^ C n b v b b K T.T.T.o.s F F {.{.{.",
"{.{.{.F N s o.Y.U.U.P K K J b M V ^ ( ( 8 % % = 5 5 5 5 5 5 = % % 8 ) ^ ^ C n b J K K P I.Y.U.o.s F F {.{.{.",
"{.{.{.F F s ..a.a.p.a.p.i.=.b b V ^ ( ( ( ^ ( >.Q.W.W.W.W.Q.>./ ^ ^ ~ ~ ^ C b b =.a.a.d.a.a.a...s F N {.{.{.",
"{.{.{.F F s ..i.a.a.d.a.d.=.b b V ^ ~ ! ( ( / >.Q.W.W.!.W.!.>./ ^ ) ) ^ ^ V b b =.d.p.a.a.i.a...s F F {.{.{.",
"{.{.{.F F F ..d.a.p.i.i.d.=.b v C ^ ( ( ( ( / >.~.W.!.!.!.!.>./ ^ ) ^ ^ ^ C b b =.a.i.i.i.a.a...s F F {.{.{.",
"{.{.{.{.{.{.{. . . .> * = o + + = ^ ( ( 2.3.1.P._._._._._.`.P.4.1.2.) ~ ^ = + + o * : >  . . .{.{.{.{.{.{.{.",
"{.{.{.{.{.{.{.N F s o           O ^ ( ( 1.6.7.L.'.'.'.'.].'.f.7.6.1.( ^ ( O           o s N N {.{.{.{.{.{.{.",
"{.{.{.{.{.{.{.F F s X           O ^ ) ( 8.7.7.L.[.'.[.[.'.[.L.7.6.1.) ( ( O           o s F F {.{.{.{.{.{.{.",
"{.{.{.{.{.{.{.F F N 2 1 1 j A A S B } B T U U G z.z.z.z.z.m. .U U T B B B S A A j 1 1 2 N F F {.{.{.{.{.{.{.",
"{.{.{.{.{.{.{.{.{.{.m m v x.V.V.N.n n n @                         , n n n N.V.V.x.v m m {.{.{.{.{.{.{.{.{.{.",
"{.{.{.{.{.{.{.{.{.{.m m v x.B.B.N.v v b @                         , n v b N.M.B.x.v v M {.{.{.{.{.{.{.{.{.{.",
"{.{.{.{.{.{.{.{.{.{.c c z j.m.m.m.g.H g.3 $ $ +             + $ $ 3 g.g.H m.m.m.j.z c z {.{.{.{.{.{.{.{.{.{.",
"{.{.{.{.{.{.{.{.{.{.    .       < M.M.M.M.M.M.I             I M.M.M.M.M.M.<   . .       {.{.{.{.{.{.{.{.{.{.",
"{.{.{.{.{.{.{.{.{.{.            $ M.B.B.M.B.V.I             I B.B.M.B.B.M.<             {.{.{.{.{.{.{.{.{.{.",
"{.{.{.{.{.{.{.{.{.{.            $ M.B.B.B.B.V.I             I V.B.B.B.B.M.#             {.{.{.{.{.{.{.{.{.{.",
"{.{.{.{.{.{.{.{.{.{.      < k k c h.h.h.j 3 3 4 {.{.{.{.{.{.4 3 3 j h.h.h.k k k <       {.{.{.{.{.{.{.{.{.{.",
"{.{.{.{.{.{.{.{.{.{.      1 m m m m v b @       {.{.{.{.{.{.      @ v m n m m m 1       {.{.{.{.{.{.{.{.{.{.",
"{.{.{.{.{.{.{.{.{.{.      f H m m m M m @       {.{.{.{.{.{.      @ m m m m n H 1       {.{.{.{.{.{.{.{.{.{.",
"{.{.{.{.{.{.{.{.{.{.      < g g g g g g @     {.{.{.{.{.{.{.{.    @ g g g g g g <       {.{.{.{.{.{.{.{.{.{.",
"{.{.{.{.{.{.{.{.{.{.{.{.{.{.            {.{.{.{.{.{.{.{.{.{.{.{.{.{.            {.{.{.{.{.{.{.{.{.{.{.{.{.{.",
"{.{.{.{.{.{.{.{.{.{.{.{.{.              {.{.{.{.{.{.{.{.{.{.{.{.{.{.              {.{.{.{.{.{.{.{.{.{.{.{.{.",
"{.{.{.{.{.{.{.{.{.{.{.{.{.              {.{.{.{.{.{.{.{.{.{.{.{.{.{.              {.{.{.{.{.{.{.{.{.{.{.{.{."
};
