/* XPM */
static char *result[] = {
/* columns rows colors chars-per-pixel */
"54 64 199 2 ",
"   c #000000",
".  c #0A0703",
"X  c #1C0909",
"o  c #140808",
"O  c #0C0D1B",
"+  c #0C1317",
"@  c #10171C",
"#  c #1F100B",
"$  c #250E0E",
"%  c #320F0F",
"&  c #241413",
"*  c #2A1A16",
"=  c #371718",
"-  c #30270F",
";  c #2F270E",
":  c #15152D",
">  c #111125",
",  c #1D1D3E",
"<  c #1D2A32",
"1  c #3A2327",
"2  c #2D2C34",
"3  c #471A1A",
"4  c #651D1D",
"5  c #55201F",
"6  c #4B2828",
"7  c #562626",
"8  c #5B3D2F",
"9  c #523629",
"0  c #5A3234",
"q  c #44233D",
"w  c #652627",
"e  c #692727",
"r  c #672728",
"t  c #662828",
"y  c #692929",
"u  c #6A2827",
"i  c #7C2C2C",
"p  c #762727",
"a  c #773D2B",
"s  c #663636",
"d  c #6E3333",
"f  c #673B36",
"g  c #753E3F",
"h  c #783E3D",
"j  c #723635",
"k  c #71342D",
"l  c #5B4B1C",
"z  c #56471A",
"x  c #61501E",
"c  c #564038",
"v  c #7B413C",
"b  c #7D4D2D",
"n  c #24234C",
"m  c #2B2C54",
"M  c #333679",
"N  c #37397A",
"B  c #39397A",
"V  c #383779",
"C  c #353E67",
"Z  c #4C2C48",
"A  c #533454",
"S  c #572E47",
"D  c #763E40",
"F  c #793F40",
"G  c #6B375F",
"H  c #453A6C",
"J  c #443B75",
"K  c #513A65",
"L  c #6E3A63",
"P  c #774040",
"I  c #794141",
"U  c #794649",
"Y  c #64646B",
"T  c #6D4A6D",
"R  c #852D2D",
"E  c #873B3B",
"W  c #943030",
"Q  c #9C3231",
"!  c #932F30",
"~  c #A33433",
"^  c #AA3737",
"/  c #B53636",
"(  c #BD3536",
")  c #BF3738",
"_  c #BE3939",
"`  c #B5393B",
"'  c #C03535",
"]  c #C13838",
"[  c #C83C39",
"{  c #8F5D37",
"}  c #B04838",
"|  c #98693C",
" . c #9A7638",
".. c #87732E",
"X. c #A6773E",
"o. c #CC423B",
"O. c #D74B3E",
"+. c #C3503C",
"@. c #834A46",
"#. c #864D48",
"$. c #864B47",
"%. c #8C5844",
"&. c #975B50",
"*. c #BE474C",
"=. c #BC535A",
"-. c #9F6353",
";. c #9D604D",
":. c #AB7A42",
">. c #A16355",
",. c #A26C54",
"<. c #B46F59",
"1. c #B26E57",
"2. c #B5745C",
"3. c #B67E4E",
"4. c #BB5D67",
"5. c #856375",
"6. c #826B72",
"7. c #9C7072",
"8. c #B97661",
"9. c #B57C62",
"0. c #B96A78",
"q. c #B96A77",
"w. c #AC6F6F",
"e. c #DD5141",
"r. c #DB4F40",
"t. c #EE5F45",
"y. c #F76748",
"u. c #F86848",
"i. c #F96543",
"p. c #9C822F",
"a. c #9E8330",
"s. c #AE8939",
"d. c #A58832",
"f. c #BA9A39",
"g. c #B7983A",
"h. c #C0A03A",
"j. c #B8894D",
"k. c #BA8D4C",
"l. c #B88068",
"z. c #D8BA4B",
"x. c #DCB653",
"c. c #CC866A",
"v. c #CA8A6B",
"b. c #D58E6E",
"n. c #D88F70",
"m. c #DA9171",
"M. c #D99D79",
"N. c #CF916F",
"B. c #E29673",
"V. c #DAA476",
"C. c #E3A27A",
"Z. c #EECE53",
"A. c #EAC755",
"S. c #FADA59",
"D. c #F3D356",
"F. c #FFE05B",
"G. c #46568E",
"H. c #52768D",
"J. c #727A8D",
"K. c #737D90",
"L. c #B87485",
"P. c #6D9EBD",
"I. c #71A4C4",
"U. c #91929C",
"Y. c #888891",
"T. c #AE8F98",
"R. c #B494AD",
"E. c #B39EB9",
"W. c #AB91A9",
"Q. c #A8A2BF",
"!. c #B2A0BC",
"~. c #9191A0",
"^. c #D28E97",
"/. c #E79C97",
"(. c #DFA780",
"). c #EBAD83",
"_. c #E5AD84",
"`. c #F1B588",
"'. c #F4BC8D",
"]. c #F1A9A1",
"[. c #FAC292",
"{. c #A7A3C4",
"}. c #B0AECD",
"|. c #AFB3D4",
" X c #B0B1D2",
".X c #CBB7C3",
"XX c #DEBBC6",
"oX c #D4CAD8",
"OX c #CEC2D2",
"+X c #E3D0DE",
"@X c #DFDFF3",
"#X c #DAD7EA",
"$X c #E2D2E1",
"%X c #DFE3F6",
"&X c #EBECFD",
"*X c #E7ECFD",
"=X c #F3F3FF",
"-X c #EEF2FF",
";X c None",
/* pixels */
";X;X;X;X;X;X;X;X;X;X;X;X;Xy r r r r r r u u r r r u u u r r u y y y r r r r u u y ;X;X;X;X;X;X;X;X;X;X;X;X;X",
";X;X;X;X;X;X;X;X;X;X;X;X;Xy r r r r r u u u t t r r y u r r u u r t t t r r u u y ;X;X;X;X;X;X;X;X;X;X;X;X;X",
";X;X;X;X;X;X;X;X;X;X;X;X;X;Xr t r w w e t t t w w w t w t t y y t t t r w t y y ;X;X;X;X;X;X;X;X;X;X;X;X;X;X",
";X;X;X;X;X;X;X;X;X;Xy y t R ~ ~ } } +.+.+.+.+.+.+.+.+.+.+.+.+.+.+.+.+.+.+.^ Q Q R y y u ;X;X;X;X;X;X;X;X;X;X",
";X;X;X;X;X;X;X;X;X;Xy t t W ] ] o.u.u.u.u.u.u.u.u.u.u.u.u.u.u.u.u.u.u.u.u.o.) ] W t t r ;X;X;X;X;X;X;X;X;X;X",
";X;X;X;X;X;X;X;X;X;Xt t r ! ] ] o.u.u.u.u.u.u.y.u.u.u.u.u.u.u.u.u.u.u.u.u.o.( ] W t r r ;X;X;X;X;X;X;X;X;X;X",
";X;X;X;X;X;X;X;X;X;Xi R i ^ O.o.O.u.u.u.u.u.u.u.u.u.u.u.u.u.u.u.u.u.u.u.u.O.o.O.Q t r y ;X;X;X;X;X;X;X;X;X;X",
";X;X;X;X;X;X;Xy y y / ] ' e.u.u.u.u.u.u.u.u.y.u.u.u.u.u.u.u.u.u.u.u.u.u.u.u.u.u.} t r y ;X;X;X;X;X;X;X;X;X;X",
";X;X;X;X;X;X;Xy r r / _ _ e.u.u.u.u.u.y.u.u.y.u.y.u.u.u.u.u.u.u.u.u.u.u.u.u.u.u.} y y y ;X;X;X;X;X;X;X;X;X;X",
";X;X;X;X;X;X;Xy y u ` o._ e.u.u.u.u.u.u.u.y.u.u.u.u.y.y.y.y.u.y.u.u.u.u.u.u.u.u.} y y u ;X;X;X;X;X;X;X;X;X;X",
";X;X;Xy y y y t y y .X$X+X/.u.u.u.u.u.u.u.u.y.y.u.y.u.u.u.u.u.u.u.u.u.u.u.u.u.u.O./ / ^ u y y ;X;X;X;X;X;X;X",
";X;X;Xt y r y t y y oX&X&X].u.u.u.u.u.u.y.u.u.u.u.u.y.u.u.y.y.u.u.u.u.u.u.u.u.u.e.] ] / u r y ;X;X;X;X;X;X;X",
";X;X;Xw w w 4 t r y oX&X*X].i.u.u.u.u.u.u.u.u.u.y.y.u.u.u.y.u.u.u.u.u.u.u.u.u.u.e./ _ / y t y ;X;X;X;X;X;X;X",
"      6.T.T.7.t r r oX&X&X/.O.r.O.y.u.u.u.u.u.u.u.u.u.y.u.u.u.y.u.u.u.u.u.e.O.e.o.] _ / r y y ;X;X;X;X;X;X;X",
"      U.=X-X.Xy u k oX&X&X^.( ( [ i.u.u.u.u.u.u.u.u.u.y.u.u.u.u.i.u.u.u.u.] _ ( ] ] ] / r y r ;X;X;X;X;X;X;X",
"      U.-X*X.Xt t y oX&X&X^.( ( +.u.u.u.u.u.u.u.u.u.u.u.u.u.u.u.u.u.u.u.u.o._ ) ] ] ' / u y r ;X;X;X;X;X;X;X",
"      U.&X&X.Xi i j OX@X*X^.( ' [ t.t.t.t.t.t.t.t.t.t.t.t.t.t.t.t.t.t.t.t.[ ] ] ] ] ] ^ y y y ;X;X;X;X;X;X;X",
"      U.&X&XXX( _ _ E. X}.L.' ] ] ] ] ] ] ] ] ] o.] ( _ ' _ ) o.] ] ] ] ] ] ) ] ] ] ] / y y y ;X;X;X;X;X;X;X",
"      U.&X&XXX' ] ] E. X|.L.( ' ] ] ] ] ] ] ] ] ] ] ) ] ] ] ] ' ] ] ] ] _ ] ] ] ] ] ] / y y y ;X;X;X;X;X;X;X",
"      U.&X&XXX_ ] ] E. X|.L.' ' ] ) ] ) ] ] ] ] ] ' ' ] ] _ ] _ ] ] ) ] ] ] ] ] ) ] ) / y y y ;X;X;X;X;X;X;X",
"      U.-X&X$XW.R.R.4.=.=.*.' ] ) ] ) ] ) ] ) ] ] ) ] ] ] ] ] ) ] ] ) ] ] ] ] ] Q i i e X X o ;X;X;X;X;X;X;X",
"      U.-X&X#X X X}.*.' ' _ ] ] ] ] ] ] ] ] ) ] ] ] ] ) ] ) ] ] ) ] ] ] _ ] ] ] ! w r 5       ;X;X;X;X;X;X;X",
"      U.=X&X@X X}.}.*.' ' ' ( ' ' ] ) ] ] ] ] ] ] ) ] ] ) ] ] ] ] ] ] ] ] ] ] [ ! r r 5       ;X;X;X;X;X;X;X",
"      Y Y.Y.~. X X}.L.q.q.q.0.0.4.) ] ] ) ] ) ] ] ] ) ) ] ] ) ] ] / Q Q Q Q Q Q R d j t       ;X;X;X;X;X;X;X",
";X;X;X      2  X}.}. X X|.|.|.|.!.o._ _ ] ] ] ] ] _ ] ] ] ] ] ] ] ^ t y t t t t d I I s       ;X;X;X;X;X;X;X",
";X;X;X      2  X X X X X X|. X X!.] _ _ ] ] ] ) ' ] _ ] ] ] ) ] ' ^ y y y r r t j I I s       ;X;X;X;X;X;X;X",
";X;X;X      2 {.{.{.{.{.{.{.Q.Q.W.` / / ` / ` ( ( / / / ( / / / ( ~ y y y y y y j I F s .     ;X;X;X;X;X;X;X",
";X;X;X;X;X;X;XU @.U J B B A k k d p u u p u u u u u y p u u k u e p D D P I D I F F I s       ;X;X;X;X;X;X;X",
";X;X;X;X;X;X;XI I I H V V A e e t t y y y y r y y y r r r r y y t d D I P I P I I h I s       ;X;X;X;X;X;X;X",
";X;X;X;X;X;X;XI I P B M M Z w e r y u y r r r r r t w r r r y y t y v I I I D I I h I f .     ;X;X;X;X;X;X;X",
";X;X;X;X;X;X;XF I I 7.w.w.w.2.2.;.& $ X %.<.<.<.<.<.<.| { { 2.N.v.v.8.8.8.@.P I 6 & & & ;X;X;X;X;X;X;X;X;X;X",
";X;X;X;X;X;X;XI I I c.m.m.m.m.m.2..     ,.B.m.m.m.m.m.:.:.X.C.[.[.`.m.m.b.#.I I 1       ;X;X;X;X;X;X;X;X;X;X",
";X;X;X;X;X;X;XI D I v.m.n.n.n.m.8.      ,.B.n.n.n.n.b.:.X.X.V.[.[.`.m.b.b.#.I U 1       ;X;X;X;X;X;X;X;X;X;X",
";X;X;X;X;X;X;XI I F 8.8.8.N.C.C.v.* & & 9.C.B.M.n.n.n.j.j.3.V.[.[.`.m.b.b.f 6 0 =       ;X;X;X;X;X;X;X;X;X;X",
";X;X;X;X;X;X;X;X;X;XD D g 9.[.[._.U I I M.[.[.`.n.n.n.n.n.n.).[.[.`.N.m.b.&     ;X;X;X;X;X;X;X;X;X;X;X;X;X;X",
";X;X;X;X;X;X;X;X;X;XI I D 9.[.[._.I I D M.[.'.`.b.n.n.n.n.n.).[.[.`.b.m.v.&     ;X;X;X;X;X;X;X;X;X;X;X;X;X;X",
";X;X;X;X;X;X;X;X;X;XI D g 9.'.'._.@.I I M.'.[.).n.n.m.n.n.b.).'.'.).b.b.c.* . . . ;X;X;X;X;X;X;X;X;X;X;X;X;X",
";X;X;X;X;X;X;X;X;X;X;X;X;X#.#.#.%.c.c.c.n.M.m.m.n.n.m.n.m.m.>.#.$.@.@.U $.a.d.d.z       ;X;X;X;X;X;X;X;X;X;X",
";X;X;X;X;X;X;X;X;X;X;X;X;X;XI v $.n.m.m.m.m.m.m.m.m.b.m.n.m.;.g v I I I v s.f.f.l       ;X;X;X;X;X;X;X;X;X;X",
";X;X;X;X;X;X;X;X;X;X;X;X;XI I v $.m.m.m.m.m.m.m.m.B.m.m.m.B.>.h P I D I I s.f.f.z       ;X;X;X;X;X;X;X;X;X;X",
";X;X;X;X;X;X;X;X;X;X;X;X;Xd d d h >.>.-.>.>.-.#.8 8 8 8 8 8 d d d a |  .X.z.z.z.g...p...      ;X;X;X;X;X;X;X",
";X;X;X;X;X;X;X;X;X;X;X;X;Xr r r r g D D D D D 6             = r w b f.f.f.D.S.S.S.F.F.z..     ;X;X;X;X;X;X;X",
";X;X;X;X;X;X;X;X;X;X;X;X;Xy r u y P P F I I I 6             3 r r b f.f.f.Z.S.S.S.S.S.z..     ;X;X;X;X;X;X;X",
";X;X;X;X;X;X;X;X;X;X;X;X;Xy r r p E @.E s 0 0 6 O O O + O O = 7 3 a g.g.g.Z.S.S.A.x.x.k..     ;X;X;X;X;X;X;X",
";X;X;X;X;X;X;X;X;X;X;X;X;Xr t t p _ ] ] %     : B V B V B B :     - g.g.f.Z.S.S.k.P P s       ;X;X;X;X;X;X;X",
";X;X;X;X;X;X;X;X;X;X;X;X;Xr r t i ( ] ] %     : B B V B B B :     - g.g.f.Z.S.S.j.P P s       ;X;X;X;X;X;X;X",
";X;X;X;X;X;X;X;X;X;X;X;X;Xr t t p _ ] ] %     : B V V V V B :     - g.g.f.A.D.S.j.P P f .     ;X;X;X;X;X;X;X",
";X;X;X;X;X;X;X;X;X;X;X;X;Xo o o $ _ _ ( p 5 5 Z V V V V B B :     # a a a { %.%.:.a.s...      ;X;X;X;X;X;X;X",
";X;X;X;X;X;X;X;X;X;X;X;X;X      X ) ) ] R r y S M B B B V V :     X e r w g I D  .f.f. ..     ;X;X;X;X;X;X;X",
";X;X;X;X;X;X;X;X;X;X;X;X;X      X ] ] [ R r y S M M M M M V :     X y e t g g g | h.h.d.      ;X;X;X;X;X;X;X",
";X;X;X;X;X;X;X;X;X;X;X;X;X;X    X 4 4 4 3 = % 0 5.5.5.5.5.5.2     . = = = { | | b x x z .     ;X;X;X;X;X;X;X",
";X;X;X;X;X;X;X;X;X;X;X;X;X;X;X;X;X            9 B.m.m.m.m.B.9             p.f.h.l       ;X;X;X;X;X;X;X;X;X;X",
";X;X;X;X;X;X;X;X;X;X;X;X;X;X;X;X;X            9 B.m.m.m.m.m.9             a.f.h.l       ;X;X;X;X;X;X;X;X;X;X",
";X;X;X;X;X;X;X;X;X;X;X;X;X;X;X;X;X      + @ @ 0 c.c.c.c.c.b.c + @ +       ..a.d.z       ;X;X;X;X;X;X;X;X;X;X",
";X;X;X;X;X;X;X;X;X;X;X;X;X;X;X;X;X      H.P.P.J.v I I I v v J.P.P.H.      .   . . ;X;X;X;X;X;X;X;X;X;X;X;X;X",
";X;X;X;X;X;X;X;X;X;X;X;X;X;X;X;X;X      H.I.I.K.h v I I D g K.I.I.H.              ;X;X;X;X;X;X;X;X;X;X;X;X;X",
";X;X;X;X;X;X;X;X;X;X;X;X;X;X;X;X;X      H.I.I.K.I U P P v v K.I.I.H.              ;X;X;X;X;X;X;X;X;X;X;X;X;X",
";X;X;X;X;X;X;X;X;X;X;X;X;X;X;X;X;X      C G.G.T ^ ^ ^ K H K m < < < ;X;X;X;X;X;X;X;X;X;X;X;X;X;X;X;X;X;X;X;X",
";X;X;X;X;X;X;X;X;X;X;X;X;X;X;X;X;X      m N N L ] ] ` J N M :       ;X;X;X;X;X;X;X;X;X;X;X;X;X;X;X;X;X;X;X;X",
";X;X;X;X;X;X;X;X;X;X;X;X;X;X;X;X;X      m B N L [ [ _ J B B :       ;X;X;X;X;X;X;X;X;X;X;X;X;X;X;X;X;X;X;X;X",
";X;X;X;X;X;X;X;X;X;X;X;X;X;X;X;X;X      , n n q p p p n n n >     ;X;X;X;X;X;X;X;X;X;X;X;X;X;X;X;X;X;X;X;X;X",
";X;X;X;X;X;X;X;X;X;X;X;X;X;X;X;X;X;X;X;X              .     ;X;X;X;X;X;X;X;X;X;X;X;X;X;X;X;X;X;X;X;X;X;X;X;X",
";X;X;X;X;X;X;X;X;X;X;X;X;X;X;X;X;X;X;X;X                    ;X;X;X;X;X;X;X;X;X;X;X;X;X;X;X;X;X;X;X;X;X;X;X;X",
";X;X;X;X;X;X;X;X;X;X;X;X;X;X;X;X;X;X;X;X                    ;X;X;X;X;X;X;X;X;X;X;X;X;X;X;X;X;X;X;X;X;X;X;X;X"
};
