/* XPM */
static char *result[] = {
/* columns rows colors chars-per-pixel */
"54 64 199 2 ",
"   c #000000",
".  c #0A0703",
"X  c #1C0909",
"o  c #140808",
"O  c #0C0D1B",
"+  c #0C1317",
"@  c #10171C",
"#  c #1F100B",
"$  c #250E0E",
"%  c #320F0F",
"&  c #241413",
"*  c #2A1A16",
"=  c #371718",
"-  c #30270F",
";  c #2F270E",
":  c #15152D",
">  c #111125",
",  c #1D1D3E",
"<  c #1D2A32",
"1  c #3A2327",
"2  c #2D2C34",
"3  c #471A1A",
"4  c #651D1D",
"5  c #55201F",
"6  c #4B2828",
"7  c #562626",
"8  c #5B3D2F",
"9  c #523629",
"0  c #5A3234",
"q  c #44233D",
"w  c #652627",
"e  c #692727",
"r  c #672728",
"t  c #662828",
"y  c #692929",
"u  c #6A2827",
"i  c #7C2C2C",
"p  c #762727",
"a  c #773D2B",
"s  c #663636",
"d  c #6E3333",
"f  c #673B36",
"g  c #753E3F",
"h  c #783E3D",
"j  c #723635",
"k  c #71342D",
"l  c #5B4B1C",
"z  c #56471A",
"x  c #61501E",
"c  c #564038",
"v  c #7B413C",
"b  c #7D4D2D",
"n  c #24234C",
"m  c #2B2C54",
"M  c #333679",
"N  c #37397A",
"B  c #39397A",
"V  c #383779",
"C  c #353E67",
"Z  c #4C2C48",
"A  c #533454",
"S  c #572E47",
"D  c #763E40",
"F  c #793F40",
"G  c #6B375F",
"H  c #453A6C",
"J  c #443B75",
"K  c #513A65",
"L  c #6E3A63",
"P  c #774040",
"I  c #794141",
"U  c #794649",
"Y  c #64646B",
"T  c #6D4A6D",
"R  c #852D2D",
"E  c #873B3B",
"W  c #943030",
"Q  c #9C3231",
"!  c #932F30",
"~  c #A33433",
"^  c #AA3737",
"/  c #B53636",
"(  c #BD3536",
")  c #BF3738",
"_  c #BE3939",
"`  c #B5393B",
"'  c #C03535",
"]  c #C13838",
"[  c #C83C39",
"{  c #8F5D37",
"}  c #B04838",
"|  c #98693C",
" . c #9A7638",
".. c #87732E",
"X. c #A6773E",
"o. c #CC423B",
"O. c #D74B3E",
"+. c #C3503C",
"@. c #834A46",
"#. c #864D48",
"$. c #864B47",
"%. c #8C5844",
"&. c #975B50",
"*. c #BE474C",
"=. c #BC535A",
"-. c #9F6353",
";. c #9D604D",
":. c #AB7A42",
">. c #A16355",
",. c #A26C54",
"<. c #B46F59",
"1. c #B26E57",
"2. c #B5745C",
"3. c #B67E4E",
"4. c #BB5D67",
"5. c #856375",
"6. c #826B72",
"7. c #9C7072",
"8. c #B97661",
"9. c #B57C62",
"0. c #B96A78",
"q. c #B96A77",
"w. c #AC6F6F",
"e. c #DD5141",
"r. c #DB4F40",
"t. c #EE5F45",
"y. c #F76748",
"u. c #F86848",
"i. c #F96543",
"p. c #9C822F",
"a. c #9E8330",
"s. c #AE8939",
"d. c #A58832",
"f. c #BA9A39",
"g. c #B7983A",
"h. c #C0A03A",
"j. c #B8894D",
"k. c #BA8D4C",
"l. c #B88068",
"z. c #D8BA4B",
"x. c #DCB653",
"c. c #CC866A",
"v. c #CA8A6B",
"b. c #D58E6E",
"n. c #D88F70",
"m. c #DA9171",
"M. c #D99D79",
"N. c #CF916F",
"B. c #E29673",
"V. c #DAA476",
"C. c #E3A27A",
"Z. c #EECE53",
"A. c #EAC755",
"S. c #FADA59",
"D. c #F3D356",
"F. c #FFE05B",
"G. c #46568E",
"H. c #52768D",
"J. c #727A8D",
"K. c #737D90",
"L. c #B87485",
"P. c #6D9EBD",
"I. c #71A4C4",
"U. c #91929C",
"Y. c #888891",
"T. c #AE8F98",
"R. c #B494AD",
"E. c #B39EB9",
"W. c #AB91A9",
"Q. c #A8A2BF",
"!. c #B2A0BC",
"~. c #9191A0",
"^. c #D28E97",
"/. c #E79C97",
"(. c #DFA780",
"). c #EBAD83",
"_. c #E5AD84",
"`. c #F1B588",
"'. c #F4BC8D",
"]. c #F1A9A1",
"[. c #FAC292",
"{. c #A7A3C4",
"}. c #B0AECD",
"|. c #AFB3D4",
" X c #B0B1D2",
".X c #CBB7C3",
"XX c #DEBBC6",
"oX c #D4CAD8",
"OX c #CEC2D2",
"+X c #E3D0DE",
"@X c #DFDFF3",
"#X c #DAD7EA",
"$X c #E2D2E1",
"%X c #DFE3F6",
"&X c #EBECFD",
"*X c #E7ECFD",
"=X c #F3F3FF",
"-X c #EEF2FF",
";X c None",
/* pixels */
";X;X;X;X;X;X;X;X;X;X;X;X;Xy r r y r y r y u t r y y r y r y r r y y r r y y y u y ;X;X;X;X;X;X;X;X;X;X;X;X;X",
";X;X;X;X;X;X;X;X;X;X;X;X;Xy r r y r y u y t t t r y t u r r y y y u t t y r r t y ;X;X;X;X;X;X;X;X;X;X;X;X;X",
";X;X;X;X;X;X;X;X;X;X;X;X;X;Xr t r t t r e w w w w w e w t t y y e w w w e r t t ;X;X;X;X;X;X;X;X;X;X;X;X;X;X",
";X;X;X;X;X;X;X;X;X;Xy y t R ~ ~ ~ +.+.+.+.+.+.+.+.+.+.+.+.+.+.+.+.+.+.+.+.~ Q ~ R t y y ;X;X;X;X;X;X;X;X;X;X",
";X;X;X;X;X;X;X;X;X;Xr r t W ] ] [ i.u.u.u.u.u.u.u.u.u.u.u.u.u.u.u.u.u.u.u.o.( [ W t y y ;X;X;X;X;X;X;X;X;X;X",
";X;X;X;X;X;X;X;X;X;Xu r t W ] ] +.y.u.u.u.u.u.u.u.u.u.u.u.u.u.u.u.u.u.u.u.o.) ] W t t t ;X;X;X;X;X;X;X;X;X;X",
";X;X;X;X;X;X;X;X;X;Xr r t ~ O.o.O.u.u.u.u.u.u.u.u.u.u.u.u.u.u.u.u.u.y.u.y.O.o.O.^ i i R ;X;X;X;X;X;X;X;X;X;X",
";X;X;X;X;X;X;X;X;X;Xr t w } u.u.u.u.u.u.u.u.y.u.u.u.u.u.u.u.u.u.u.u.u.u.u.u.u.u.O.] ] / y y y ;X;X;X;X;X;X;X",
";X;X;X;X;X;X;X;X;X;Xy y t } u.u.y.u.u.y.u.u.u.u.y.u.y.u.u.y.u.u.u.u.u.u.i.u.u.u.O._ ) / u y r ;X;X;X;X;X;X;X",
";X;X;X;X;X;X;X;X;X;Xu y t } u.u.u.u.u.u.y.u.u.y.u.u.u.u.u.y.y.u.u.u.u.u.u.u.u.u.t._ _ ` y r r ;X;X;X;X;X;X;X",
";X;X;X;X;X;X;Xy y u ^ / ^ O.u.u.y.u.u.y.u.u.y.u.u.u.u.u.y.u.u.u.u.u.u.u.u.u.u.i./.$X$X.Xy t t y y y y ;X;X;X",
";X;X;X;X;X;X;Xr y u / ] ( t.u.u.u.u.u.u.u.u.u.u.y.u.y.u.u.u.u.u.u.u.u.u.u.u.u.i.].*X&XoXd t t y r t y ;X;X;X",
";X;X;X;X;X;X;Xy r y / ] ( e.u.u.u.u.u.u.u.u.u.u.u.y.u.u.u.u.u.u.u.u.u.u.u.u.i.i.].&X*XoXy r y w w 4 w ;X;X;X",
";X;X;X;X;X;X;Xy y r / ) ( o.e.e.O.y.u.u.y.y.u.u.u.u.u.u.u.u.u.u.y.u.u.u.u.O.O.O./.*X&XoXy r y 7.T.T.6.      ",
";X;X;X;X;X;X;Xr y y / ) ] ) ( ' o.y.u.u.u.u.u.u.u.u.y.u.u.u.u.u.u.u.u.u.u.o./ ( ^.*X&XoXy r r .X-X=XU.      ",
";X;X;X;X;X;X;Xr y y / ] ] ] ] ) o.y.u.u.u.u.u.u.u.u.u.u.u.u.u.u.u.u.u.u.u.o.) ' ^.-X&XoXd r r .X*X&XU.      ",
";X;X;X;X;X;X;Xy y y / ] ) ] ] ] [ t.t.t.t.t.t.t.t.t.t.t.t.t.t.t.t.t.t.t.t.[ ' ( ^.*X@XOXi i p .X&X-XU.      ",
";X;X;X;X;X;X;Xy y u / ] ] ) ) ] ) ] ] ] ] ] ] ] ] ] ] ] ] ] ] ] ] ] ] ] ] ] ] ' L.|. XE._ ] ] XX&X-XU.      ",
";X;X;X;X;X;X;Xy r u / ' ] ] ] ] ] ] ] ] ] ] ] ] ] ] ] ) ] ] ] ) ] ] ] ) ] ] _ ' L.|. XE._ _ ' XX&X-XU.      ",
";X;X;X;X;X;X;Xt y y / ' ] ) ] ) ] ) ] ) ] ] ] ] ) ] ] ] ] ] ] ] ] ] ] ] ) ] ] ' L.|. X!._ ] ] XX&X&XU.      ",
";X;X;X;X;X;X;Xo X X r i i ~ ] ] ] ] ] ] ) ) ] ] ) ] ] ] ] ] ] ] ] ) ] ] ] ] _ ' *.=.=.4.R.R.R.#X&X&XU.      ",
";X;X;X;X;X;X;X      7 r r W ] ] ] ] ] ] ] ] ) ] ] ] ) ] ) ] ) ) ] ] ] ) ] ] ] ] ( ( ' *.}. X X#X&X&XU.      ",
";X;X;X;X;X;X;X      7 y w ! ] ] ] ] ] ] ] ] ] ] ) ] ) ] ] ] ] ] ) ] ] ] _ ' ' ' ' ' ' *.}.}. X@X-X=XU.      ",
";X;X;X;X;X;X;X    . 7 d d R Q Q Q Q Q Q / ] ) ] ] ] ] ] ) ] ] ) ] ] ] ) ] 4.q.q.q.q.q.L.}. X X~.Y.Y.Y       ",
";X;X;X;X;X;X;X      f I I d t t e t t w ~ [ ] ] ] ] ] ] ] ] ] ] ] ) ] ) ] {. X X|.|.|.|. X}. X2       ;X;X;X",
";X;X;X;X;X;X;X      s I I d t y e e t t ^ ] ] ] ] ] ) ] ] ] ] ] ] ] ] ) ] !. X X}.}.}. X X X|.2       ;X;X;X",
";X;X;X;X;X;X;X      s I I j y y y y y y ~ ) / / / / / / / / ) / / / ) / ` W.{.!.Q.{.{.{.{.{.{.2       ;X;X;X",
";X;X;X;X;X;X;X      s I P I I D P P v v k u u u p u p u p u u u u u u p u y d d A G.B J F U @.;X;X;X;X;X;X;X",
";X;X;X;X;X;X;X      s F F F P I P P P P d r t t t r u r u r r r y y y y y y y r Z N N H P D I ;X;X;X;X;X;X;X",
";X;X;X;X;X;X;X    . s U I I F I P P v P y w w t r t r r r r r r t r y y y y r u A N N V P v I ;X;X;X;X;X;X;X",
";X;X;X;X;X;X;X;X;X;X& & & 7 I P @.8.8.8.v.N.N.l.{ { | 1.1.<.<.<.2.%.$ X $ -.<.<.9.7.w.7.P I D ;X;X;X;X;X;X;X",
";X;X;X;X;X;X;X;X;X;X      1 I F #.m.m.m.`.[.[.V.X.:.:.n.m.m.m.B.B.,.    . 2.m.m.m.m.m.c.I P I ;X;X;X;X;X;X;X",
";X;X;X;X;X;X;X;X;X;X      1 I U #.b.n.n.`.[.[.V.X.X.X.N.n.n.n.n.m.,.      9.n.n.m.m.m.c.P D P ;X;X;X;X;X;X;X",
";X;X;X;X;X;X;X;X;X;X      * 0 9 f n.n.n.`.[.[.V.3.3.j.b.n.n.M.C.C.2.& & * v._.B.v.8.8.8.I I I ;X;X;X;X;X;X;X",
";X;X;X;X;X;X;X;X;X;X;X;X;X;X    # b.n.n.`.[.[.).n.m.n.m.m.b.).[.[.(.D D I _.[.[.l.g g P ;X;X;X;X;X;X;X;X;X;X",
";X;X;X;X;X;X;X;X;X;X;X;X;X;X    # b.n.b.`.[.[.).n.n.n.m.m.b.).[.[.V.D D I _.[.[.9.g I D ;X;X;X;X;X;X;X;X;X;X",
";X;X;X;X;X;X;X;X;X;X;X;X;X. . . * v.N.b.).'.'.).n.n.m.n.n.n.).[.[.M.@.I $.(.'.'.9.D P I ;X;X;X;X;X;X;X;X;X;X",
";X;X;X;X;X;X;X;X;X;X      z d.d.a.#.@.@.#.#.@.>.m.m.n.m.n.n.m.m.m.m.c.c.c.&.#.#.#.;X;X;X;X;X;X;X;X;X;X;X;X;X",
";X;X;X;X;X;X;X;X;X;X      x h.g.s.I D P I D D ;.m.m.m.b.m.m.n.m.m.n.m.n.b.$.D D ;X;X;X;X;X;X;X;X;X;X;X;X;X;X",
";X;X;X;X;X;X;X;X;X;X    . z h.g.s.I D D D I D >.B.m.B.m.B.m.m.m.m.m.m.m.m.#.I I I ;X;X;X;X;X;X;X;X;X;X;X;X;X",
";X;X;X;X;X;X;X    . b a.p.g.z.z.z. .X. .a d d d 8 8 8 8 8 8 #.>.>.-.-.>.>.h d d k ;X;X;X;X;X;X;X;X;X;X;X;X;X",
";X;X;X;X;X;X;X    . z.F.F.F.S.S.Z.f.f.f.b w u =             6 F D g D D P y r r r ;X;X;X;X;X;X;X;X;X;X;X;X;X",
";X;X;X;X;X;X;X    . z.S.S.S.S.S.Z.f.g.g.v r p 3             6 I F F D P D y r r y ;X;X;X;X;X;X;X;X;X;X;X;X;X",
";X;X;X;X;X;X;X    . k.x.z.A.S.D.Z.f.g.f.a 3 5 = O O O + O O 1 s 0 d @.E E k r r y ;X;X;X;X;X;X;X;X;X;X;X;X;X",
";X;X;X;X;X;X;X    . s I D k.S.S.Z.f.g.g.;     : B V B V B B :     % ] ] ] i t y r ;X;X;X;X;X;X;X;X;X;X;X;X;X",
";X;X;X;X;X;X;X      s P D k.S.S.Z.f.g.g.;     : B B V B B B :     % ] ] ) p t t y ;X;X;X;X;X;X;X;X;X;X;X;X;X",
";X;X;X;X;X;X;X      f I g j.S.D.Z.g.g.g.;     : B V V V V B :     % ' ] ) p t t r ;X;X;X;X;X;X;X;X;X;X;X;X;X",
";X;X;X;X;X;X;X       .s.s.| %.%.{ a a a #     : V V V V B B Z 5 7 e ' ] _ $ o o o ;X;X;X;X;X;X;X;X;X;X;X;X;X",
";X;X;X;X;X;X;X    . p.f.f. .D D j t t y X     : B V B V B N S u r R ] ] ) X       ;X;X;X;X;X;X;X;X;X;X;X;X;X",
";X;X;X;X;X;X;X      d.f.h.| D D g y y u X     : M M M M M M S u y R [ ] ] X       ;X;X;X;X;X;X;X;X;X;X;X;X;X",
";X;X;X;X;X;X;X    . z x x b | | { = = = o     2 5.5.5.5.5.5.0 = = 3 4 4 4 X     ;X;X;X;X;X;X;X;X;X;X;X;X;X;X",
";X;X;X;X;X;X;X;X;X;X      l h.g.p.            9 B.B.m.m.m.m.9             ;X;X;X;X;X;X;X;X;X;X;X;X;X;X;X;X;X",
";X;X;X;X;X;X;X;X;X;X      l h.f. ..           9 B.b.m.m.m.m.9             ;X;X;X;X;X;X;X;X;X;X;X;X;X;X;X;X;X",
";X;X;X;X;X;X;X;X;X;X      z d.a...      + @ + f c.c.c.c.c.b.c + @ +       ;X;X;X;X;X;X;X;X;X;X;X;X;X;X;X;X;X",
";X;X;X;X;X;X;X;X;X;X;X;X;X. .   .       H.P.P.J.v I I I I v J.P.P.H.      ;X;X;X;X;X;X;X;X;X;X;X;X;X;X;X;X;X",
";X;X;X;X;X;X;X;X;X;X;X;X;X              H.I.I.Y h h I v g h K.I.I.H.      ;X;X;X;X;X;X;X;X;X;X;X;X;X;X;X;X;X",
";X;X;X;X;X;X;X;X;X;X;X;X;X              H.I.I.P.h F U D I F K.I.I.H.      ;X;X;X;X;X;X;X;X;X;X;X;X;X;X;X;X;X",
";X;X;X;X;X;X;X;X;X;X;X;X;X;X;X;X;X;X;X;X< < < m H H K ^ ^ ^ T G.G.C       ;X;X;X;X;X;X;X;X;X;X;X;X;X;X;X;X;X",
";X;X;X;X;X;X;X;X;X;X;X;X;X;X;X;X;X;X;X;X      : B V J ` ] [ G M V m       ;X;X;X;X;X;X;X;X;X;X;X;X;X;X;X;X;X",
";X;X;X;X;X;X;X;X;X;X;X;X;X;X;X;X;X;X;X;X      : B B J _ ] [ L N B m       ;X;X;X;X;X;X;X;X;X;X;X;X;X;X;X;X;X",
";X;X;X;X;X;X;X;X;X;X;X;X;X;X;X;X;X;X;X;X;X    > n n n p p p q n n ,       ;X;X;X;X;X;X;X;X;X;X;X;X;X;X;X;X;X",
";X;X;X;X;X;X;X;X;X;X;X;X;X;X;X;X;X;X;X;X;X;X;X;X                    ;X;X;X;X;X;X;X;X;X;X;X;X;X;X;X;X;X;X;X;X",
";X;X;X;X;X;X;X;X;X;X;X;X;X;X;X;X;X;X;X;X;X;X;X;X                    ;X;X;X;X;X;X;X;X;X;X;X;X;X;X;X;X;X;X;X;X",
";X;X;X;X;X;X;X;X;X;X;X;X;X;X;X;X;X;X;X;X;X;X;X;X                    ;X;X;X;X;X;X;X;X;X;X;X;X;X;X;X;X;X;X;X;X"
};
