/* XPM */
static char *result[] = {
/* columns rows colors chars-per-pixel */
"51 64 164 2 ",
"   c #000000",
".  c #0A0705",
"X  c #06070A",
"o  c #0B0B0C",
"O  c #101006",
"+  c #1D1D0C",
"@  c #1D140E",
"#  c #0E0E11",
"$  c #0F1010",
"%  c #131316",
"&  c #1C1C17",
"*  c #151519",
"=  c #1A1B1E",
"-  c #181310",
";  c #1A0C07",
":  c #210700",
">  c #250902",
",  c #2E150D",
"<  c #221811",
"1  c #391B12",
"2  c #2F2B19",
"3  c #39281E",
"4  c #34251B",
"5  c #363716",
"6  c #383717",
"7  c #383817",
"8  c #393919",
"9  c #373818",
"0  c #1E1F24",
"q  c #222226",
"w  c #24242C",
"e  c #2A292F",
"r  c #3B3B22",
"t  c #3D3D2D",
"y  c #32322B",
"u  c #2C2C36",
"i  c #2E2F3B",
"p  c #2E303B",
"a  c #3F3F32",
"s  c #31313C",
"d  c #3B3E3E",
"f  c #343434",
"g  c #511101",
"h  c #48241A",
"j  c #4A2114",
"k  c #532517",
"l  c #442522",
"z  c #593935",
"x  c #7A3622",
"c  c #753D3D",
"v  c #414226",
"b  c #45472C",
"n  c #564E2D",
"m  c #5F4F2D",
"M  c #58502E",
"N  c #434333",
"B  c #40403A",
"V  c #5E4C3C",
"C  c #78543E",
"Z  c #735D3C",
"A  c #3D3E4B",
"S  c #3B3C47",
"D  c #493F4A",
"F  c #6D3E40",
"G  c #434344",
"H  c #42424E",
"J  c #4F414B",
"K  c #444848",
"L  c #4E4F4D",
"P  c #464655",
"I  c #494656",
"U  c #484856",
"Y  c #464758",
"T  c #464859",
"R  c #484858",
"E  c #514E5C",
"W  c #4F525A",
"Q  c #50515F",
"!  c #674F45",
"~  c #794141",
"^  c #734244",
"/  c #755946",
"(  c #535461",
")  c #595B67",
"_  c #5B5D6A",
"`  c #5E626A",
"'  c #666969",
"]  c #666A67",
"[  c #6E7369",
"{  c #71766D",
"}  c #6A6E76",
"|  c #6E7474",
" . c #717577",
".. c #737970",
"X. c #71767C",
"o. c #747B7C",
"O. c #8F3F27",
"+. c #903F27",
"@. c #97442C",
"#. c #B35539",
"$. c #854E4A",
"%. c #8E544B",
"&. c #94584E",
"*. c #B85C44",
"=. c #93674C",
"-. c #846953",
";. c #A57954",
":. c #A57656",
">. c #B2775D",
",. c #987465",
"<. c #977465",
"1. c #807F7F",
"2. c #B77B61",
"3. c #CA6143",
"4. c #CE6C52",
"5. c #E37151",
"6. c #7B827D",
"7. c #B2815B",
"8. c #BC8462",
"9. c #B88B6A",
"0. c #C68E6D",
"q. c #C98A68",
"w. c #C18967",
"e. c #D6966E",
"r. c #D8976F",
"t. c #CE9C7F",
"y. c #DA9A71",
"u. c #E19E73",
"i. c #DEA37C",
"p. c #E1A47C",
"a. c #777C84",
"s. c #797F81",
"d. c #7B8285",
"f. c #7E858A",
"g. c #808583",
"h. c #858C8C",
"j. c #8A8F9B",
"k. c #828792",
"l. c #899191",
"z. c #8C929D",
"x. c #ADAFAF",
"c. c #A3AAB6",
"v. c #A8B0BB",
"b. c #CF9E80",
"n. c #D2A082",
"m. c #E3AA82",
"M. c #EAB68E",
"N. c #E6B28C",
"B. c #EDBD95",
"V. c #F2C29A",
"C. c #AEB6C1",
"Z. c #B5BDCC",
"A. c #BFC1C7",
"S. c #BCC4D4",
"D. c #C2CADB",
"F. c #CED0D0",
"G. c #D4D4D4",
"H. c #D9D7D7",
"J. c #CAD2E3",
"K. c #E4E6ED",
"L. c #E6E8EF",
"P. c #EAEDF4",
"I. c #FFFFFF",
"U. c None",
/* pixels */
"U.U.U.U.U.U.U.U.U.U.U.U.U.U.U.U.R R R R R I R R R R R R R U.U.U.U.U.U.U.U.U.U.U.U.U.U.U.U.U.U.U.U.U.U.",
"U.U.U.U.U.U.U.U.U.U.U.U.U.U.U.U.R R R R R R R P T U T I U U.U.U.U.U.U.U.U.U.U.U.U.U.U.U.U.U.U.U.U.U.U.",
"U.U.U.U.U.U.U.U.U.U.U.U.U.U.U.U.R R R R R I R I U U R R T U.U.U.U.U.U.U.U.U.U.U.U.U.U.U.U.U.U.U.U.U.U.",
"U.U.U.U.U.U.U.U.U.U.9 9 9 9 9 v o.f.f.s.f.d.f.d.f.d.f.f.[ 7 9 7 9 9 9 U.U.U.U.U.U.U.U.U.U.U.U.U.U.U.U.",
"U.U.U.U.U.U.U.U.U.U.9 9 9 9 6 v h.l.l.l.l.l.l.l.l.l.l.l.{ 7 7 7 8 9 8 U.U.U.U.U.U.U.U.U.U.U.U.U.U.U.U.",
"U.U.U.U.U.U.U.U.U.U.7 9 7 6 6 v h.l.l.l.l.l.l.l.h.l.l.l.[ 6 5 5 6 7 7 U.U.U.U.U.U.U.U.U.U.U.U.U.U.U.U.",
"U.U.U.U.U.U.U.    q G G L { [ { h.l.l.l.l.l.h.l.l.l.l.l.g.[ [ ] G G G 8 9 9 U.U.U.U.U.U.U.U.U.U.U.U.U.",
"U.U.U.U.U.U.      q R I _ l.l.l.l.l.l.h.l.l.l.l.l.l.l.h.l.l.l.h.R R U r 9 9 U.U.U.U.U.U.U.U.U.U.U.U.U.",
"U.U.U.U.U.U.      q T T ) l.l.l.l.h.l.l.l.l.l.l.l.h.l.l.l.l.l.f.R R I 8 9 6 U.U.U.U.U.U.U.U.U.U.U.U.U.",
"U.U.U.U.U.U.+ < + y T T ) l.l.l.l.l.l.l.h.l.l.l.l.l.l.l.l.l.l.f.E R R B B B &     U.U.U.U.U.U.U.U.U.U.",
"U.U.U.U.U.U.9 9 6 a T P ) l.l.l.l.l.l.l.l.l.l.l.l.l.l.l.h.l.l.g.R R R R T R %     U.U.U.U.U.U.U.U.U.U.",
"U.U.U.U.U.U.7 6 5 z T T ) l.l.l.l.h.l.l.l.l.l.h.l.l.l.l.l.l.l.f.R R R R R R %     U.U.U.U.U.U.U.U.U.U.",
"U.U.U.U.U.U.y N t G R T ( X.X.o.l.l.l.l.l.l.l.l.l.l.l.l.g.X.X.} R R R R R Y %     U.U.U.U.U.U.U.U.U.U.",
"U.U.U.      u R R R U R T T T R h.l.l.l.l.l.l.l.h.l.l.l.a.P Y Y R R R R R R %     U.U.U.U.U.U.U.U.U.U.",
"U.U.U.      i R Y R U R U R R Q h.l.l.l.l.l.l.l.l.l.l.l.o.Y R R R R R Y R R %     U.U.U.U.U.U.U.U.U.U.",
"U.U.U.      u R R U R T R U T Q a.s.f.s.s.s.s.d.s.d.s.f.} Y R Y R R R R I Y %       U.U.U.U.U.U.U.U.U.",
"U.U.U.      u R I R R R R I R Y R R R R R R R R R R R R R R R R R R U U T R %             U.U.U.U.U.U.",
"U.U.U.      p R R Y Y R R T R U R R R U R R R R R R R R R R R R U R R U U R %             U.U.U.U.U.U.",
"U.U.U.      u R R R I R R R Y R R R R R U R R R R I R I T R R R P P U I P P 0 $ o X       U.U.U.U.U.U.",
"U.U.U.      s R R R Y R R U R R R U R Y T R R R R R R R U R R K 8 9 8 8 9 9 [ h.h.d       U.U.U.U.U.U.",
"U.U.U.      u R R R R R R R R R R R R T R R R T R R R R R R R K 9 9 9 8 8 8 ..l.l.d       U.U.U.U.U.U.",
"U.U.U.      u R P R R R I R R R Y R U R R I U U U U U U R R R K 8 r 8 8 8 8 ..l.l.d       U.U.U.U.U.U.",
"U.U.U.U.U.U.o o o w R R R R R R R I I R R R a r r r r r r r r N 6.6.g.6.6.6.` Q Q P U.U.U.U.U.U.U.U.U.",
"U.U.U.U.U.U.      q R R R R R R R R R Y R R t 5 9 9 6 6 6 6 7 b l.l.l.l.l.l.) U U U.U.U.U.U.U.U.U.U.U.",
"U.U.U.U.U.U.      0 R R R R R R R R R R R R t 6 9 9 9 9 9 6 9 b h.l.l.l.l.l.) P R U.U.U.U.U.U.U.U.U.U.",
"U.U.U.U.U.U.      o * * * * * * * * * * * * f K G G G K f O O & ) ` _ ) _ _ e * * U.U.U.U.U.U.U.U.U.U.",
"U.U.U.U.U.U.                                s R R R R R s     o P P P Y Y Y $     U.U.U.U.U.U.U.U.U.U.",
"U.U.U.U.U.U.                                s T Y Y Y R p     o P P P P Y Y %     U.U.U.U.U.U.U.U.U.U.",
"U.U.U.U.U.U.            < C / / -.-.-.2 < + / ,.<.<.,.,.!     - <.,.,.,.<.<.z l l U.U.U.U.U.U.U.U.U.U.",
"U.U.U.U.U.U.            3 y.y.p.V.V.V.n 7 7 ;.i.y.y.y.u.=.    < e.y.y.y.y.y.&.F ~ U.U.U.U.U.U.U.U.U.U.",
"U.U.U.U.U.U.            3 r.y.y.V.V.B.n 7 5 ;.y.r.y.y.y.=.    @ q.r.e.r.y.t.&.F ~ U.U.U.U.U.U.U.U.U.U.",
"U.U.U.U.U.U.U.          3 y.r.y.B.V.B.n 7 5 ;.y.r.y.m.m.9.! V / p.m.m.2.2.>.%.O.~ U.U.U.U.U.U.U.U.U.U.",
"U.U.U.U.U.U.U.U.U.U.    3 y.y.y.B.V.B.n 7 7 ;.y.y.m.V.V.V.V.V.V.B.B.B.$.c O.U.U.U.U.U.U.U.U.U.U.U.U.U.",
"U.U.U.U.U.U.U.U.U.U.    3 u.y.u.V.V.V.n 5 5 ;.y.e.m.V.V.V.V.V.B.V.V.B.$.F ~ U.U.U.U.U.U.U.U.U.U.U.U.U.",
"U.U.U.U.U.U.U.U.U.U.    4 :.:.:.t.i.t.Z n m 7.y.e.m.M.M.B.M.M.N.n.n.n.%.F ^ U.U.U.U.U.U.U.U.U.U.U.U.U.",
"U.U.U.U.U.U.U.U.U.U.U.U.U.    o c F ~ q.y.r.y.r.y.e.r.r.y.y.r.q.$.F F U.U.U.U.U.U.U.U.U.U.U.U.U.U.U.U.",
"U.U.U.U.U.U.U.U.U.U.U.U.U.    . c F ~ q.y.y.y.r.y.y.r.r.y.r.y.q.~ ~ ~ U.U.U.U.U.U.U.U.U.U.U.U.U.U.U.U.",
"U.U.U.U.U.U.U.U.U.U.U.U.U.o o $ F ^ ^ >.8.8.8.8.8.w.0.0.0.0.0.8.c c F U.U.U.U.U.U.U.U.U.U.U.U.U.U.U.U.",
"U.U.U.U.U.U.U.U.U.U.U.U.U.P P P I U U - . . . . . u E R E R W J g g g U.U.U.U.U.U.U.U.U.U.U.U.U.U.U.U.",
"U.U.U.U.U.U.U.U.U.U.U.U.U.R P I R T P #           e R R R I R D g g g U.U.U.U.U.U.U.U.U.U.U.U.U.U.U.U.",
"U.U.U.U.U.U.U.U.U.U.U.U.U.R Y R P P P $ X X X   . w T P P U W J g g g U.U.U.U.U.U.U.U.U.U.U.U.U.U.U.U.",
"U.U.U.U.U.U.U.U.U.U.    * R Y P # o o ] o.6.6.o.6.K X X h 4.4.*.g g g U.U.U.U.U.U.U.U.U.U.U.U.U.U.U.U.",
"U.U.U.U.U.U.U.U.U.U.    % R Y A       o.l.l.l.l.z.K     h 5.5.3.g g g U.U.U.U.U.U.U.U.U.U.U.U.U.U.U.U.",
"U.U.U.U.U.U.U.U.U.U.    % R R H X   X  .l.l.l.l.l.K     h 5.5.3.g g g U.U.U.U.U.U.U.U.U.U.U.U.U.U.U.U.",
"U.U.U.U.U.U.U.U.U.U.    % R T H X   .  .l.l.l.l.z.K     h 5.5.3.g g g U.U.U.U.U.U.U.U.U.U.U.U.U.U.U.U.",
"U.U.U.U.U.U.U.U.U.U.    * T T H       o.l.l.l.l.l.K     h 5.5.3.g g g U.U.U.U.U.U.U.U.U.U.U.U.U.U.U.U.",
"U.U.U.U.U.U.U.U.U.U.    % T R H .   X | l.h.h.h.l.G     h 5.5.3.g g g U.U.U.U.U.U.U.U.U.U.U.U.U.U.U.U.",
"U.U.U.U.U.U.U.U.U.U.    % R R H     X x.F.F.F.F.G.'     1 #.#.@.> > > U.U.U.U.U.U.U.U.U.U.U.U.U.U.U.U.",
"U.U.U.U.U.U.U.U.U.U.    % R R P     X H.I.I.I.I.I.g.    , O.O.x       U.U.U.U.U.U.U.U.U.U.U.U.U.U.U.U.",
"U.U.U.U.U.U.U.U.U.U.    % R R A X   . G.I.I.I.I.I.1.    , @.@.x .     U.U.U.U.U.U.U.U.U.U.U.U.U.U.U.U.",
"U.U.U.U.U.U.U.U.U.U.    # u u w     X A.L.K.K.L.P. .    ; k k j       U.U.U.U.U.U.U.U.U.U.U.U.U.U.U.U.",
"U.U.U.U.U.U.U.U.U.U.U.U.U.          X c.D.S.S.S.D.`             U.U.U.U.U.U.U.U.U.U.U.U.U.U.U.U.U.U.U.",
"U.U.U.U.U.U.U.U.U.U.U.U.U.          X c.J.D.D.D.J.'             U.U.U.U.U.U.U.U.U.U.U.U.U.U.U.U.U.U.U.",
"U.U.U.U.U.U.U.U.U.U.U.U.U.      % * * a.j.j.z.j.z.Q % * #       U.U.U.U.U.U.U.U.U.U.U.U.U.U.U.U.U.U.U.",
"U.U.U.U.U.U.U.U.U.U.U.U.U.    o P U T o           w R R s       U.U.U.U.U.U.U.U.U.U.U.U.U.U.U.U.U.U.U.",
"U.U.U.U.U.U.U.U.U.U.U.U.U.    X P U T o           w R R s       U.U.U.U.U.U.U.U.U.U.U.U.U.U.U.U.U.U.U.",
"U.U.U.U.U.U.U.U.U.U.U.U.U.    o A A A = * % = 0 0 A _ _ A       U.U.U.U.U.U.U.U.U.U.U.U.U.U.U.U.U.U.U.",
"U.U.U.U.U.U.U.U.U.U.U.U.U.U.U.U.    X | h.h.v.S.Z.S.S.D.k.      U.U.U.U.U.U.U.U.U.U.U.U.U.U.U.U.U.U.U.",
"U.U.U.U.U.U.U.U.U.U.U.U.U.U.U.U.    X  .l.l.v.S.D.D.S.D.k.      U.U.U.U.U.U.U.U.U.U.U.U.U.U.U.U.U.U.U.",
"U.U.U.U.U.U.U.U.U.U.U.U.U.U.U.U.      | g.h.c.S.Z.Z.Z.S.f.      U.U.U.U.U.U.U.U.U.U.U.U.U.U.U.U.U.U.U.",
"U.U.U.U.U.U.U.U.U.U.U.U.U.U.U.U.U.U.U.$ $ $ % * % * * * * U.U.U.U.U.U.U.U.U.U.U.U.U.U.U.U.U.U.U.U.U.U.",
"U.U.U.U.U.U.U.U.U.U.U.U.U.U.U.U.U.U.U.                    U.U.U.U.U.U.U.U.U.U.U.U.U.U.U.U.U.U.U.U.U.U.",
"U.U.U.U.U.U.U.U.U.U.U.U.U.U.U.U.U.U.U.                    U.U.U.U.U.U.U.U.U.U.U.U.U.U.U.U.U.U.U.U.U.U.",
"U.U.U.U.U.U.U.U.U.U.U.U.U.U.U.U.U.U.U.U.U.U.U.U.U.U.U.U.U.U.U.U.U.U.U.U.U.U.U.U.U.U.U.U.U.U.U.U.U.U.U."
};
