/* XPM */
static char *result[] = {
/* columns rows colors chars-per-pixel */
"50 64 150 2 ",
"   c #000000",
".  c #090904",
"X  c #0C0C0D",
"o  c #120B0B",
"O  c #14100C",
"+  c #0E0E10",
"@  c #0F1011",
"#  c #141414",
"$  c #1A1C1E",
"%  c #1F1712",
"&  c #290C05",
"*  c #300A00",
"=  c #26110B",
"-  c #201710",
";  c #231913",
":  c #271F19",
">  c #2D1818",
",  c #2C2C13",
"<  c #38281D",
"1  c #36271D",
"2  c #363615",
"3  c #383817",
"4  c #37371A",
"5  c #393919",
"6  c #1C1C21",
"7  c #1F2123",
"8  c #232526",
"9  c #24242C",
"0  c #292C2C",
"q  c #3D2C22",
"w  c #3D3D22",
"e  c #3C3C2A",
"r  c #2D2D36",
"t  c #2E2E38",
"y  c #3E3E31",
"u  c #34353B",
"i  c #383536",
"p  c #4E0E00",
"a  c #500F00",
"s  c #501000",
"d  c #5A1B0F",
"f  c #4D1F17",
"g  c #5A1C11",
"h  c #572315",
"j  c #672B1B",
"k  c #762915",
"l  c #782A16",
"z  c #4A2F29",
"x  c #5F2E25",
"c  c #793622",
"v  c #753E3E",
"b  c #45462C",
"n  c #524826",
"m  c #534828",
"M  c #404039",
"N  c #4A4B33",
"B  c #6A4B37",
"V  c #6C4C38",
"C  c #353541",
"Z  c #3F3F46",
"A  c #443D45",
"S  c #4D3E44",
"D  c #3F4050",
"F  c #424342",
"G  c #45454E",
"H  c #444848",
"J  c #565945",
"K  c #555847",
"L  c #464655",
"P  c #464758",
"I  c #484758",
"U  c #474858",
"Y  c #484859",
"T  c #484854",
"R  c #554753",
"E  c #5E545B",
"W  c #565B5B",
"Q  c #515558",
"!  c #794141",
"~  c #61575E",
"^  c #6D5C5D",
"/  c #616554",
"(  c #515260",
")  c #595B67",
"_  c #5B5D68",
"`  c #565961",
"'  c #5F626D",
"]  c #636762",
"[  c #61646E",
"{  c #686C74",
"}  c #6B7077",
"|  c #747A71",
" . c #72777D",
".. c #8E3F27",
"X. c #934129",
"o. c #A14E36",
"O. c #804744",
"+. c #8B554E",
"@. c #91574C",
"#. c #BC5E43",
"$. c #9D6F52",
"%. c #996253",
"&. c #A96253",
"*. c #A56A57",
"=. c #A56A59",
"-. c #A57658",
";. c #A57161",
":. c #AA7463",
">. c #C25E41",
",. c #E27151",
"<. c #BE8962",
"1. c #BF9C76",
"2. c #B99772",
"3. c #C28B64",
"4. c #CE926D",
"5. c #D4956E",
"6. c #D69770",
"7. c #D79870",
"8. c #D99A71",
"9. c #DBA37C",
"0. c #E1A77F",
"q. c #777D81",
"w. c #797F84",
"e. c #7D8484",
"r. c #808784",
"t. c #818986",
"y. c #858D8D",
"u. c #88908F",
"i. c #878F90",
"p. c #889090",
"a. c #8F9898",
"s. c #91999C",
"d. c #9298A4",
"f. c #9EA4B1",
"g. c #A8ACAC",
"h. c #B7BBBB",
"j. c #DDB18C",
"k. c #EDBD95",
"l. c #F0BF97",
"z. c #F1C199",
"x. c #B4BCCB",
"c. c #B8BFCF",
"v. c #B1B8C7",
"b. c #BAC2D1",
"n. c #C1C9D9",
"m. c #DADBDF",
"M. c #ECEAEA",
"N. c #EDEEF3",
"B. c #FFFFFF",
"V. c None",
/* pixels */
"V.V.V.V.V.V.V.V.V.V.V.V.V.V.V.V.V.V.V.V.V.V.V.V.V.V.V.V.V.V.V.V.V.V.V.V.V.V.V.V.V.V.V.V.V.V.V.V.V.V.",
"V.V.V.V.V.V.V.V.V.V.V.V.V.V.V.V.V.V.V.V.V.V.I Y Y Y Y Y Y Y Y Y Y Y V.V.V.V.V.V.V.V.V.V.V.V.V.V.V.V.",
"V.V.V.V.V.V.V.V.V.V.V.V.V.V.V.V.V.V.V.V.V.V.P P I I I I P P P Y I P V.V.V.V.V.V.V.V.V.V.V.V.V.V.V.V.",
"V.V.V.V.V.V.V.V.V.V.V.V.V.V.V.V.V.V.V.V.V.V.( ( ( ( ( ( ( ( ( ( Q ( V.V.V.V.V.V.V.V.V.V.V.V.V.V.V.V.",
"V.V.V.V.V.V.V.V.V.V.V.V.V.V.V.V.5 5 3 4 3 b y.y.y.y.y.y.i.y.y.y.u.u.J 2 5 5 5 4 3 V.V.V.V.V.V.V.V.V.",
"V.V.V.V.V.V.V.V.V.V.V.V.V.V.V.V.5 5 5 3 3 b y.p.p.y.y.p.p.p.y.p.u.p.J 2 5 4 5 3 5 V.V.V.V.V.V.V.V.V.",
"V.V.V.V.V.V.V.V.V.V.V.V.V.V.V.V.5 5 5 5 5 N y.p.p.p.p.p.p.p.p.p.u.p./ 5 w 5 5 5 4 V.V.V.V.V.V.V.V.V.",
"V.V.V.V.V.V.V.V.V.V.V.V.V.5 5 e T T ) r.e.y.p.p.p.p.i.u.p.i.i.u.p.u.t.r.t.[ L I t       V.V.V.V.V.V.",
"V.V.V.V.V.V.V.V.V.V.V.V.5 3 3 e Y I ) p.p.p.p.p.p.p.p.p.p.p.p.u.p.p.u.p.p.{ U Y t       V.V.V.V.V.V.",
"V.V.V.V.V.V.V.V.V.V.V.V.4 5 5 y U I ) y.p.p.y.p.p.p.p.y.u.u.p.p.u.p.p.p.p.{ U Y t       V.V.V.V.V.V.",
"V.V.V.V.V.V.V.V.V.      0 G G L U I ) i.p.u.p.p.y.p.p.p.p.p.u.p.u.i.u.p.p.{ I Y i , , 2 V.V.V.V.V.V.",
"V.V.V.V.V.V.V.V.V.      9 Y Y I U I ) p.i.p.i.u.p.p.u.p.p.u.p.p.p.p.u.p.p.{ I Y F 3 5 5 V.V.V.V.V.V.",
"V.V.V.V.V.V.V.V.V.      9 Y Y Y Y U ) i.p.p.p.p.p.y.p.p.p.u.u.p.p.y.p.p.p.{ U Y F 5 5 5 V.V.V.V.V.V.",
"V.V.V.V.V.V.V.V.V.      9 Y Y Y I I Q ) ' ' y.p.p.p.p.p.p.p.p.u.p.p.{ ) _ ( U I G H H i       V.V.V.",
"V.V.V.V.V.V.V.V.V.      9 Y Y Y I I U U L ( y.p.p.p.p.p.p.p.u.u.p.p.[ I U U I I Y Y Y C       V.V.V.",
"V.V.V.V.V.V.V.V.V.      9 Y Y I I U U U L ( p.p.p.p.p.p.p.p.p.p.p.p.[ Y Y I I I Y Y Y C       V.V.V.",
"V.V.V.V.V.V.V.          9 Y Y Y Y Y Y Y P Y [ [ ' [ [ ' [ ' ' [ ' ' W U I I I Y Y Y Y C       V.V.V.",
"V.V.V.V.V.V.            9 Y Y Y Y Y Y P Y Y I I I P I L I I I U U I I I I I I P Y Y Y C       V.V.V.",
"V.V.V.V.V.V.            9 Y Y Y P Y Y Y I I Y U Y Y P Y U I I I U I Y Y I I Y Y Y I Y C       V.V.V.",
"V.V.V.V.V.V.      0 H F F M M M M M F P I I I I P Y Y Y U U I I I I I U Y Y P Y Y Y Y C       V.V.V.",
"V.V.V.V.V.V.      W a.a./ 2 3 3 2 2 e I I Y Y Y Y Y Y Y Y Y I I I Y U I I Y Y Y P Y Y C       V.V.V.",
"V.V.V.V.V.V.      W a.a./ 2 3 3 2 2 w P Y Y Y Y Y Y Y Y I I Y I I I Y Y Y Y Y P Y Y Y C       V.V.V.",
"V.V.V.V.V.V.V.    Q  . ./ J J J J J K F M F F F F M F F T I I I Y Y I Y Y I P Y Z t u 9       V.V.V.",
"V.V.V.V.V.V.V.V.V.I I I { p.p.p.p.p.| 5 5 3 3 3 3 3 3 5 H Y Y Y I I U Y P Y Y Y t       V.V.V.V.V.V.",
"V.V.V.V.V.V.V.V.V.Y Y Y { a.p.p.p.p.| 5 4 3 3 3 3 3 3 4 L Y Y Y Y Y Y Y Y Y Y ( t       V.V.V.V.V.V.",
"V.V.V.V.V.V.V.V.V.C C C ` w.q.q.w.e.' , , , e e e e e e u C C C C u C C C C C C 8       V.V.V.V.V.V.",
"V.V.V.V.V.V.V.V.V.      9 I I L Y Y u     X L Y U I U L X                               V.V.V.V.V.V.",
"V.V.V.V.V.V.V.V.V.      9 I I L Y Y C     X L P I I I L X                               V.V.V.V.V.V.",
"V.V.V.V.V.V.V.V.V.o o o i ~ ~ ~ E E A     o E E E E E E # . . % : : ; ; ; o             V.V.V.V.V.V.",
"V.V.V.V.V.V.V.V.V.v v v *.5.5.5.6.8.$.    ; 4.6.5.5.5.4.n 2 2 2.k.k.9.5.7.B             V.V.V.V.V.V.",
"V.V.V.V.V.V.V.V.V.! v v *.8.7.7.7.8.-.    ; 5.7.7.7.8.5.n 3 3 1.z.z.0.8.8.V             V.V.V.V.V.V.",
"V.V.V.V.V.V.V.V.V.! ! v *.5.4.5.8.8.-.O o 1 6.8.8.8.7.5.n 3 3 1.z.z.0.8.8.V             V.V.V.V.V.V.",
"V.V.V.V.V.V.V.V.V.V.V.V.O.O.! :.l.k.k.j.j.j.k.l.k.8.7.5.n 2 5 1.z.z.0.5.8.V       V.V.V.V.V.V.V.V.V.",
"V.V.V.V.V.V.V.V.V.V.V.V.V.v v ;.z.l.k.z.z.l.l.l.k.8.7.6.n 4 5 1.z.z.j.6.8.V       V.V.V.V.V.V.V.V.V.",
"V.V.V.V.V.V.V.V.V.V.V.V.V.! ! ;.z.k.l.l.l.l.l.l.k.8.7.6.m 5 5 4.z.k.9.5.7.V       V.V.V.V.V.V.V.V.V.",
"V.V.V.V.V.V.V.V.V.V.V.V.V.V.V.V.+.+.=.8.9.8.9.8.9.7.7.7.3.<.3.%.+.+.z - ; ; V.V.V.V.V.V.V.V.V.V.V.V.",
"V.V.V.V.V.V.V.V.V.V.V.V.V.V.V.V.v v @.8.7.8.5.7.7.7.7.7.8.8.8.@.v ! >     V.V.V.V.V.V.V.V.V.V.V.V.V.",
"V.V.V.V.V.V.V.V.V.V.V.V.V.V.V.V.v v @.8.7.6.8.7.7.7.7.8.8.8.7.@.v ! >       V.V.V.V.V.V.V.V.V.V.V.V.",
"V.V.V.V.V.V.V.V.V.V.V.V.V.V.V.V.d d x ^ ^ ^ ^ ^ ~ z < < < < < H R R A C C C V.V.V.V.V.V.V.V.V.V.V.V.",
"V.V.V.V.V.V.V.V.V.V.V.V.V.V.V.V.p p f I P L L I G             C Y Y Y Y Y Y V.V.V.V.V.V.V.V.V.V.V.V.",
"V.V.V.V.V.V.V.V.V.V.V.V.V.V.V.V.s a f L L I Y Y L             u Y Y Y Y Y V.V.V.V.V.V.V.V.V.V.V.V.V.",
"V.V.V.V.V.V.V.V.V.V.V.V.V.V.V.V.s p j &.&.+.6 6 7 Q W W W W W r 6 6 C Y Y t     V.V.V.V.V.V.V.V.V.V.",
"V.V.V.V.V.V.V.V.V.V.V.V.V.V.V.V.s p k ,.,.>.    X e.a.p.p.a.p.8     t Y Y 9       V.V.V.V.V.V.V.V.V.",
"V.V.V.V.V.V.V.V.V.V.V.V.V.V.V.V.s p k ,.,.#..   X e.u.u.p.p.p.8     t Y Y 9       V.V.V.V.V.V.V.V.V.",
"V.V.V.V.V.V.V.V.V.V.V.V.V.V.V.V.a p k ,.,.#.    X e.y.u.u.u.u.8     t Y Y 9       V.V.V.V.V.V.V.V.V.",
"V.V.V.V.V.V.V.V.V.V.V.V.V.V.V.V.a p k ,.,.#..   X e.u.u.u.u.u.8     t Y Y 9       V.V.V.V.V.V.V.V.V.",
"V.V.V.V.V.V.V.V.V.V.V.V.V.V.V.V.s a l ,.,.>.    X e.y.y.u.y.y.8     t Y Y 9       V.V.V.V.V.V.V.V.V.",
"V.V.V.V.V.V.V.V.V.V.V.V.V.V.V.V.* * g >.>.o..   O g.h.h.h.h.h.r     t Y ( 9       V.V.V.V.V.V.V.V.V.",
"V.V.V.V.V.V.V.V.V.V.V.V.V.V.V.V.    = ..X.c     # M.B.B.B.B.B.H     t Y Y 9       V.V.V.V.V.V.V.V.V.",
"V.V.V.V.V.V.V.V.V.V.V.V.V.V.V.V.    = X.X.c .   # M.B.B.B.B.B.F     t Y Y 9       V.V.V.V.V.V.V.V.V.",
"V.V.V.V.V.V.V.V.V.V.V.V.V.V.V.V.    = j j h     # m.N.N.N.N.M.D     8 C C 8     V.V.V.V.V.V.V.V.V.V.",
"V.V.V.V.V.V.V.V.V.V.V.V.V.V.V.V.V.V.V.          + v.n.n.n.n.b.u           V.V.V.V.V.V.V.V.V.V.V.V.V.",
"V.V.V.V.V.V.V.V.V.V.V.V.V.V.V.V.V.V.V.          @ x.n.n.n.n.n.C             V.V.V.V.V.V.V.V.V.V.V.V.",
"V.V.V.V.V.V.V.V.V.V.V.V.V.V.V.V.V.V.V.      X X $ d.f.f.f.f.f.C + + .       V.V.V.V.V.V.V.V.V.V.V.V.",
"V.V.V.V.V.V.V.V.V.V.V.V.V.V.V.V.V.V.V.    X L I A X   . X .   C Y Y 6       V.V.V.V.V.V.V.V.V.V.V.V.",
"V.V.V.V.V.V.V.V.V.V.V.V.V.V.V.V.V.V.V.    + I Y D .           C Y Y 6       V.V.V.V.V.V.V.V.V.V.V.V.",
"V.V.V.V.V.V.V.V.V.V.V.V.V.V.V.V.V.V.V.    @ ( ( Y $ # # + + + C L L 6     V.V.V.V.V.V.V.V.V.V.V.V.V.",
"V.V.V.V.V.V.V.V.V.V.V.V.V.V.V.V.V.V.V.    7 x.b.b.v.x.x.p.e.e.8     V.V.V.V.V.V.V.V.V.V.V.V.V.V.V.V.",
"V.V.V.V.V.V.V.V.V.V.V.V.V.V.V.V.V.V.V.    7 b.b.b.n.b.n.s.p.p.8     V.V.V.V.V.V.V.V.V.V.V.V.V.V.V.V.",
"V.V.V.V.V.V.V.V.V.V.V.V.V.V.V.V.V.V.V.    7 x.b.b.b.b.b.p.y.y.8     V.V.V.V.V.V.V.V.V.V.V.V.V.V.V.V.",
"V.V.V.V.V.V.V.V.V.V.V.V.V.V.V.V.V.V.V.V.V.V.$ $ $ 7 $ $ # # # V.V.V.V.V.V.V.V.V.V.V.V.V.V.V.V.V.V.V.",
"V.V.V.V.V.V.V.V.V.V.V.V.V.V.V.V.V.V.V.V.V.V.                  V.V.V.V.V.V.V.V.V.V.V.V.V.V.V.V.V.V.V.",
"V.V.V.V.V.V.V.V.V.V.V.V.V.V.V.V.V.V.V.V.V.V.                  V.V.V.V.V.V.V.V.V.V.V.V.V.V.V.V.V.V.V.",
"V.V.V.V.V.V.V.V.V.V.V.V.V.V.V.V.V.V.V.V.V.V.V.V.V.V.V.V.V.V.V.V.V.V.V.V.V.V.V.V.V.V.V.V.V.V.V.V.V.V."
};
