/* XPM */
static char *result[] = {
/* columns rows colors chars-per-pixel */
"51 64 162 2 ",
"   c #000000",
".  c #0D0D05",
"X  c #07090B",
"o  c #0A0A0C",
"O  c #070709",
"+  c #110906",
"@  c #110C09",
"#  c #15150A",
"$  c #0E0E11",
"%  c #0F1011",
"&  c #111012",
"*  c #16161B",
"=  c #1A1A1A",
"-  c #231912",
";  c #201610",
":  c #2B2B12",
">  c #2A2319",
",  c #302219",
"<  c #3A281E",
"1  c #353516",
"2  c #383817",
"3  c #393919",
"4  c #1E1E24",
"5  c #1F2023",
"6  c #212126",
"7  c #27252C",
"8  c #342A21",
"9  c #3D2E24",
"0  c #352722",
"q  c #363723",
"w  c #3F3328",
"e  c #3C3C29",
"r  c #3E3026",
"t  c #2B2B34",
"y  c #2F2F3A",
"u  c #2F3038",
"i  c #32333C",
"p  c #363939",
"a  c #3B3E3E",
"s  c #3B333B",
"d  c #562618",
"f  c #552617",
"g  c #4E3E31",
"h  c #503D30",
"j  c #652F20",
"k  c #434427",
"l  c #42423F",
"z  c #634F3F",
"x  c #79563F",
"c  c #72513D",
"v  c #353541",
"b  c #393944",
"n  c #3E3E4B",
"m  c #3E4142",
"M  c #43434B",
"N  c #47474A",
"B  c #584742",
"V  c #454554",
"C  c #4E4654",
"Z  c #4C4A54",
"A  c #474759",
"S  c #474858",
"D  c #494959",
"F  c #484758",
"G  c #534652",
"H  c #534E5A",
"J  c #594E58",
"K  c #51525F",
"L  c #754041",
"P  c #794141",
"I  c #7F4A48",
"U  c #7E5B45",
"Y  c #7E655F",
"T  c #565863",
"R  c #5E6169",
"E  c #62656E",
"W  c #666C6C",
"Q  c #646771",
"!  c #676B72",
"~  c #6E737A",
"^  c #6F7277",
"/  c #767D76",
"(  c #72767C",
")  c #757B78",
"_  c #8E3E27",
"`  c #8A412C",
"'  c #86422F",
"]  c #924128",
"[  c #884937",
"{  c #9B533E",
"}  c #A14C33",
"|  c #A94F35",
" . c #AC5136",
".. c #AF5338",
"X. c #B15439",
"o. c #C05C3F",
"O. c #834C48",
"+. c #845D45",
"@. c #BF5C40",
"#. c #93684C",
"$. c #876B54",
"%. c #94755C",
"&. c #B7624C",
"*. c #A77B5D",
"=. c #846963",
"-. c #977960",
";. c #C05D40",
":. c #CE6547",
">. c #CF6749",
",. c #CB6547",
"<. c #C86A51",
"1. c #C76951",
"2. c #D2755A",
"3. c #D7785C",
"4. c #D4694A",
"5. c #E1704F",
"6. c #E27151",
"7. c #7B827D",
"8. c #CB8D6A",
"9. c #C78B6A",
"0. c #CC916D",
"q. c #D5966E",
"w. c #D8976F",
"e. c #CE9471",
"r. c #DB9B72",
"t. c #D79870",
"y. c #E19E73",
"u. c #DDA179",
"i. c #D6A17C",
"p. c #E1A47B",
"a. c #747981",
"s. c #777B86",
"d. c #7B8184",
"f. c #7E838C",
"g. c #848B8C",
"h. c #8A8F8E",
"j. c #818088",
"k. c #899191",
"l. c #919199",
"z. c #8B908F",
"x. c #8D92A2",
"c. c #9196A6",
"v. c #969CA9",
"b. c #989EAB",
"n. c #9FA5A8",
"m. c #ACACB5",
"M. c #BAB9BF",
"N. c #B5B4BA",
"B. c #E2A880",
"V. c #EAB68E",
"C. c #E8B68F",
"Z. c #E7B691",
"A. c #EEBD95",
"S. c #F1BC93",
"D. c #F1C199",
"F. c #FDCAA0",
"G. c #BABAC3",
"H. c #BEC7D6",
"J. c #C4CCDD",
"K. c #EAECF2",
"L. c white",
"P. c None",
/* pixels */
"P.P.P.P.P.P.P.P.P.P.P.P.P.P.P.P.P.P.P.P.P.P.P.P.P.P.P.P.P.P.P.P.P.P.P.P.P.P.P.P.P.P.P.P.P.P.P.P.P.P.P.",
"P.P.P.P.P.P.P.P.P.P.P.P.P.P.P.P.P.P.P.D D D D D D S D D D D D S P.P.P.P.P.P.P.P.P.P.P.P.P.P.P.P.P.P.P.",
"P.P.P.P.P.P.P.P.P.P.P.P.P.P.P.P.P.P.P.D D D D D S S S D D S D D P.P.P.P.P.P.P.P.P.P.P.P.P.P.P.P.P.P.P.",
"P.P.P.P.P.P.P.P.P.P.P.P.P.P.P.P.P.P.P.D K D D K D K D K K D K D P.P.P.P.P.P.P.P.P.P.P.P.P.P.P.P.P.P.P.",
"P.P.P.P.P.P.P.P.P.P.P.P.P.2 2 2 2 2 3 7.g.g.g.f.g.g.g.g.g.g.g.) 3 2 2 2 2 2 P.P.P.P.P.P.P.P.P.P.P.P.P.",
"P.P.P.P.P.P.P.P.P.P.P.P.P.2 2 2 2 2 3 7.k.k.k.k.k.k.k.k.k.g.k.7.3 2 2 1 2 2 P.P.P.P.P.P.P.P.P.P.P.P.P.",
"P.P.P.P.P.P.P.P.P.P.P.P.P.2 3 3 1 1 3 7.k.k.k.k.k.k.k.k.k.k.k.7.q 3 2 3 3 3 P.P.P.P.P.P.P.P.P.P.P.P.P.",
"P.P.P.P.P.P.P.P.P.P.2 2 e M M Z / 7.7.g.k.k.k.k.k.k.k.g.k.k.k.g.7.7./ Z M N e 2 2 P.P.P.P.P.P.P.P.P.P.",
"P.P.P.P.P.P.P.P.P.P.2 2 e S D T g.k.k.k.k.k.g.k.k.k.g.k.k.k.k.k.k.k.g.K S D e 2 2 P.P.P.P.P.P.P.P.P.P.",
"P.P.P.P.P.P.P.P.P.P.2 2 e S D D g.k.k.k.k.k.k.k.k.k.k.k.k.g.k.h.h.k.g.K D S e 1 2 P.P.P.P.P.P.P.P.P.P.",
"P.P.P.P.P.P.P.    7 l l M A D K g.k.k.k.k.k.k.k.k.k.k.k.k.k.k.k.k.k.g.K D D M l l 7     P.P.P.P.P.P.P.",
"P.P.P.P.P.P.      5 D D F A A K g.k.k.k.k.g.k.k.k.g.k.k.g.k.k.k.k.k.g.K D V F D D 4       P.P.P.P.P.P.",
"P.P.P.P.P.P.      6 D D D D F K g.k.k.k.k.k.k.g.k.k.k.g.k.k.k.k.k.k.g.T A A F S D 6       P.P.P.P.P.P.",
"P.P.P.P.P.P.      6 D D D F D D ~ ~ ( g.k.k.k.k.k.k.k.k.k.k.k.g.~ ~ ~ D F D D F D 6       P.P.P.P.P.P.",
"P.P.P.P.P.P.      6 D D S F D D D S Z d.k.g.k.k.k.k.k.k.k.k.k.d.D A A D D S D D D 6       P.P.P.P.P.P.",
"P.P.P.P.P.P.      5 D F D D D D D D D f.k.k.k.k.k.k.k.k.k.k.k.f.D D D S F D F S D 6       P.P.P.P.P.P.",
"P.P.P.P.P.P.      6 D D D A Z F S S D ( d.d.d.d.d.d.d.d.d.d.d.( D D D D D S S S D 4       P.P.P.P.P.P.",
"P.P.P.P.P.P.      6 D D A D D D S D D D D D D D D Z S S D S D S D D V D F F D S D 6       P.P.P.P.P.P.",
"P.P.P.P.P.P.      4 D D D F D D D D D D D D S D S S D D S D D S D S D D D S F S D 6       P.P.P.P.P.P.",
"P.P.P.P.P.P.@ @ . 7 F M V V V V V N V V V V F N Z V V D V V N Z F N V V F N V V F 7 + @ @ P.P.P.P.P.P.",
"P.P.P.      U 8.8.c   O # q 3 3 q 3 q 3 2 3 q 3 3 3 q 3 q 3 3 3 2 q 3 3 3 q # O   c 8.8.+.      P.P.P.",
"P.P.P.      +.r.p.x     @ 2 2 2 3 2 2 2 2 2 2 2 2 2 3 2 3 2 2 2 2 2 2 3 2 2 .     U r.r.+.      P.P.P.",
"P.P.P.      +.y.r.x     . 3 2 2 3 3 2 2 2 2 3 3 2 2 2 2 3 3 2 2 2 2 3 2 2 2 @     x y.r.+.      P.P.P.",
"P.P.P.      %.S.A.$.      . . = / 7./ / 7./ / 7./ / 7./ / 7.7.7./ / / = . .       $.S.S.%.      P.P.P.",
"P.P.P.      %.D.F.$.          & g.h.k.k.k.k.k.k.k.l.k.k.k.k.k.k.k.k.f.%           $.D.F.-.      P.P.P.",
"P.P.P.      -.F.F.$.          o g.h.k.k.k.k.k.k.k.k.k.k.k.k.l.k.k.k.g.$           $.F.F.-.      P.P.P.",
"P.P.P.P.P.P.g z B 8     - +.U U E E R m p p T Q Q E ! Q K p p m E E E U +.+.-     8 z z k P.P.P.P.P.P.",
"P.P.P.P.P.P.    O       < u.r.e.Z S V o     y A V S S D y     o F F Z e.r.r.<           O P.P.P.P.P.P.",
"P.P.P.P.P.P.            < w.t.9.D S V o     i A A A F A y     o V F D 9.w.r.<             P.P.P.P.P.P.",
"P.P.P.P.P.P.P.          9 p.B.i.=.=.=.#     B =.Y Y =.=.B     & Y =.=.i.p.B.9           P.P.P.P.P.P.P.",
"P.P.P.P.P.P.P.P.P.P.    g D.D.A.r.r.q.-     #.y.r.r.r.y.#.    - q.r.r.A.D.D.w     P.P.P.P.P.P.P.P.P.P.",
"P.P.P.P.P.P.P.P.P.P.    9 D.D.Z.r.w.q.#     #.r.t.r.q.r.#.    ; q.q.r.A.D.D.w     P.P.P.P.P.P.P.P.P.P.",
"P.P.P.P.P.P.P.P.P.P.    g V.Z.Z.u.i.r.g 8 8 *.u.u.u.u.u.*.8 0 g t.u.u.Z.V.V.w     P.P.P.P.P.P.P.P.P.P.",
"P.P.P.P.P.P.P.P.P.P.    , r.r.r.A.D.D.D.A.A.D.D.D.D.D.D.A.A.D.A.D.D.D.r.t.r.<     P.P.P.P.P.P.P.P.P.P.",
"P.P.P.P.P.P.P.P.P.P.    < q.q.r.A.D.A.A.D.D.D.D.D.A.A.D.D.D.A.D.D.A.A.r.q.r.<     P.P.P.P.P.P.P.P.P.P.",
"P.P.P.P.P.P.P.P.P.P.o o 9 8.e.q.Z.Z.Z.A.A.A.A.A.A.A.A.A.A.A.A.A.Z.Z.Z.e.0.0.w O o P.P.P.P.P.P.P.P.P.P.",
"P.P.P.P.P.P.      a g.d.( H H J I O.O.8.r.r.r.r.r.r.r.r.r.r.r.8.O.O.I J H H ( d.g.a       P.P.P.P.P.P.",
"P.P.P.P.P.P.      a k.k.) D D Z L L P 9.r.t.t.t.t.t.t.t.q.r.r.9.P L L C A D s.k.k.m       P.P.P.P.P.P.",
"P.P.P.P.P.P.      m k.k.s.D F Z L P P 9.t.q.q.t.q.q.t.t.q.q.t.9.P P L C S D 7.k.k.m       P.P.P.P.P.P.",
"P.P.P.      t b v E k.k.W & & * G G G 0 , , , , , , , , , , , 0 G G G * % & W k.k.R v b 7       P.P.P.",
"P.P.P.      y D A Q k.k.W     X V F A X                       o F F V O     W k.k.Q S D y       P.P.P.",
"P.P.P.      t F V T l.k.W     X V V V X                       $ V F V O     W k.l.W V S t       P.P.P.",
"P.P.P.y t t s.M.G.l.Q ! S     o Q ( ^ [ ' ' j d d d d d j ' ` [ ^ ~ ! o     Z Q E l.N.G.j.t t t P.P.P.",
"P.P.P.D D F G.L.L.G.n D v     & g.k.k.3.6.6. .] ] ] ] _ ..6.6.3.k.k.g.%     i S V m.L.L.G.A D D P.P.P.",
"P.P.P.D D V M.L.L.m.m A i     % f.k.h.2.6.6.| _ _ _ _ _  .6.6.3.z.k.d.#     v S n m.L.L.G.V A D P.P.P.",
"P.P.P.A D V m.K.K.G.s.s.R # # > g.k.h.2.6.6.o.X...X.X...X.;.o.&.k.k.g.> # # R f.s.G.K.K.m.F D A P.P.P.",
"P.P.P.D A V c.J.H.H.J.J.n.3 2 k g.k.h.2.5.5.6.6.6.5.6.6.:._ _ [ h.k.g.k 2 2 n.J.J.H.H.J.x.V A D P.P.P.",
"P.P.P.A A V v.J.J.J.J.J.n.2 2 k h.k.h.2.5.5.6.6.6.6.6.6.,._ _ [ h.k.g.k 2 3 n.J.H.J.J.J.v.V A S P.P.P.",
"P.P.P.D D F f.b.v.v.v.b.s.: : 3 ) s.j.2.5.5.4.:.:.:.:.:.@.} } { 7.s.a.3 : : s.b.v.b.v.b.f.F D D P.P.P.",
"P.P.P.P.P.P.            O     O V F Z <.6.6. ._ _ ] ] _  .6.5.1.D A F X                   P.P.P.P.P.P.",
"P.P.P.P.P.P.                  O V F D 1.5.6. .` ] ] ] _ | 6.6.1.D D F O                   P.P.P.P.P.P.",
"P.P.P.P.P.P.        O O O O O $ n V V &.>.>.} ` ` ` ` ` } >.>.&.M V M o O O     O         P.P.P.P.P.P.",
"P.P.P.P.P.P.P.P.P.P.1 1 q M V b o O O + + + s H C C Z H s + + + O O o b V V q 1 1 P.P.P.P.P.P.P.P.P.P.",
"P.P.P.P.P.P.P.P.P.P.3 2 e F D n             y D D D D D y           O M D D e 3 2 P.P.P.P.P.P.P.P.P.P.",
"P.P.P.P.P.P.P.P.P.P.2 2 e A D n O           y D F F F D i           O n D A e 1 2 P.P.P.P.P.P.P.P.P.P.",
"P.P.P.P.P.P.P.P.P.P.. . o & $ * v b b b b b 4 $ % & % $ 4 b b b b b v & & & . . . P.P.P.P.P.P.P.P.P.P.",
"P.P.P.P.P.P.P.P.P.P.          X A D D D D D *           = D D D D D V O           P.P.P.P.P.P.P.P.P.P.",
"P.P.P.P.P.P.P.P.P.P.          O m F A S D D 4           * D D D V A V             P.P.P.P.P.P.P.P.P.P.",
"P.P.P.P.P.P.P.P.P.P.    5 a.( s.x.x.x.i 4 4 & P.P.P.P.P.& 4 4 y x.c.x.s.a.a.5     P.P.P.P.P.P.P.P.P.P.",
"P.P.P.P.P.P.P.P.P.P.    i J.J.J.J.J.H.=     P.P.P.P.P.P.P.    5 H.J.J.J.J.J.i     P.P.P.P.P.P.P.P.P.P.",
"P.P.P.P.P.P.P.P.P.P.    i J.J.J.J.J.H.4     P.P.P.P.P.P.P.    6 J.J.J.J.J.J.i     P.P.P.P.P.P.P.P.P.P.",
"P.P.P.P.P.P.P.P.P.P.    t ( a.s.a.a.a.4     P.P.P.P.P.P.P.    = ~ a.a.a.a.a.t     P.P.P.P.P.P.P.P.P.P.",
"P.P.P.P.P.P.P.P.P.P.P.P.P.            P.P.P.P.P.P.P.P.P.P.P.P.P.            P.P.P.P.P.P.P.P.P.P.P.P.P.",
"P.P.P.P.P.P.P.P.P.P.P.P.P.            P.P.P.P.P.P.P.P.P.P.P.P.P.            P.P.P.P.P.P.P.P.P.P.P.P.P."
};
