/* XPM */
static char *result[] = {
/* columns rows colors chars-per-pixel */
"50 64 108 2 ",
"   c #000000",
".  c #0D0D05",
"X  c #0B0B0E",
"o  c #101007",
"O  c #15150A",
"+  c #1B1B0C",
"@  c #0E0E11",
"#  c #121214",
"$  c #1F1C10",
"%  c #15151A",
"&  c #1B1C1E",
"*  c #201D11",
"=  c #2E2E13",
"-  c #29271F",
";  c #363617",
":  c #383816",
">  c #373718",
",  c #393919",
"<  c #1B1B21",
"1  c #202027",
"2  c #24242C",
"3  c #2A2B2F",
"4  c #3E3E20",
"5  c #35352E",
"6  c #2D2D36",
"7  c #2F2F39",
"8  c #333637",
"9  c #3F3331",
"0  c #33333E",
"q  c #43362B",
"w  c #533A2A",
"e  c #5A3F2E",
"r  c #553F30",
"t  c #42411E",
"y  c #494723",
"u  c #4B4924",
"i  c #514D27",
"p  c #404036",
"a  c #404039",
"s  c #4D4F38",
"d  c #5C4A3B",
"f  c #51543E",
"g  c #6B4B37",
"h  c #625D32",
"j  c #676136",
"k  c #6F683A",
"l  c #756D3E",
"z  c #353542",
"x  c #3A3A47",
"c  c #3C3C49",
"v  c #444447",
"b  c #44444C",
"n  c #454949",
"m  c #464655",
"M  c #484757",
"N  c #474953",
"B  c #474758",
"V  c #484758",
"C  c #494959",
"Z  c #4D5151",
"A  c #4F505E",
"S  c #555B5B",
"D  c #797140",
"F  c #525361",
"G  c #575B61",
"H  c #595C66",
"J  c #5B5D69",
"K  c #5E626B",
"L  c #626767",
"P  c #61646E",
"I  c #656B6B",
"U  c #626670",
"Y  c #666A72",
"T  c #696D74",
"R  c #6D727A",
"E  c #70757B",
"W  c #757B7C",
"Q  c #9E6F51",
"!  c #8C7059",
"~  c #A27254",
"^  c #A57B5D",
"/  c #B28F71",
"(  c #B59173",
")  c #DC9A71",
"_  c #E29F75",
"`  c #737783",
"'  c #767B81",
"]  c #767989",
"[  c #797C8B",
"{  c #7B8282",
"}  c #808784",
"|  c #818986",
" . c #858D8D",
".. c #898F9A",
"X. c #899191",
"o. c #8D939F",
"O. c #959BAB",
"+. c #A0A6B6",
"@. c #A3A9BA",
"#. c #E5AA81",
"$. c #F5C59C",
"%. c #FAC89E",
"&. c #B4BBCA",
"*. c #B8BFCF",
"=. c #BBC2D2",
"-. c #C3CBDB",
";. c #C8D0E1",
":. c None",
/* pixels */
":.:.:.:.:.:.:.:.:.:.:.:.:.:.:.:.:.:.:.:.:.:.:.:.:.:.:.:.:.:.:.:.:.:.:.:.:.:.:.:.:.:.:.:.:.:.:.:.:.:.",
":.:.:.:.:.:.:.:.:.:.:.:.:.:.:.:.:.:.:.C C C B B C B C C B C C :.:.:.:.:.:.:.:.:.:.:.:.:.:.:.:.:.:.:.",
":.:.:.:.:.:.:.:.:.:.:.:.:.:.:.:.:.:.:.C C B B B B M B B B B B :.:.:.:.:.:.:.:.:.:.:.:.:.:.:.:.:.:.:.",
":.:.:.:.:.:.:.:.:.:.:.:.:.:.:.:.:.:.:.G F F F F F F A F A F F :.:.:.:.:.:.:.:.:.:.:.:.:.:.:.:.:.:.:.",
":.:.:.:.:.:.:.:.:.:.:.:.:., > > : : s {  . . . . . . . .X. . .s > , , , , :.:.:.:.:.:.:.:.:.:.:.:.:.",
":.:.:.:.:.:.:.:.:.:.:.:.:., > > : ; s X.X.X.X.X.X.X. .X.X.X.X.s > , , , , :.:.:.:.:.:.:.:.:.:.:.:.:.",
":.:.:.:.:.:.:.:.:.:.:.:., , , , t 4 f X.X. . .X. .X. .X.X.X.X.f , 4 , , , , :.:.:.:.:.:.:.:.:.:.:.:.",
":.:.:.:.:.:.:.:.:., 4 , q N N K  .{ { X.X.X.X.X.X.X.X.X.X. .X.| } | H N M p > , , :.:.:.:.:.:.:.:.:.",
":.:.:.:.:.:.:.:.:., , , a C B U X.X.X.X.X.X.X.X.X. .X.X.X.X. .X.X.X.P B C a > > > :.:.:.:.:.:.:.:.:.",
":.:.:.:.:.:.:.:.:., , , a C B K ..{ X.X.X.X. .X.X.X.X. . .X.X.X.X.X.K B A q > > > :.:.:.:.:.:.:.:.:.",
":.:.:.:.:.:.      6 b b m V B K X.X.X.X.X.X. .X.X.X.X.X.X.X.X.X.X.X.P B C N n N 7       :.:.:.:.:.:.",
":.:.:.:.:.:.      7 C C C B B P X.X.X.X.X.X.X.X.X. .X.X. .X. .X.X.X.K B C C C C 7       :.:.:.:.:.:.",
":.:.:.:.:.:.      6 C C C m m P X.X.X.X.X.X.X.X.X.X.X.X.X.X.X.X.X.X.U C C C C C 6       :.:.:.:.:.:.",
":.:.:.:.:.:.      7 C C M C C A K G U X.X. .X.X.X. . .X. .X.X.U H J C V M C C C 7       :.:.:.:.:.:.",
":.:.:.:.:.:.      6 C C C m C B B m K X.X. .X.X.X.X.X.X.X.X.X.G m B B V C B C C 6       :.:.:.:.:.:.",
":.:.:.:.:.:.      7 C C C C V C B m G X.X.X.X.X.X.X.X.X.X.X.X.K B B B V C M M C 7       :.:.:.:.:.:.",
":.:.:.:.:.:.      7 C C B C C m C V A P P P P P K P P K U P P A B C C C C C C C 6       :.:.:.:.:.:.",
":.:.:.:.:.:.      7 C C B C C B C C C m m m B m N M M M M M M B C C B B B C C C 6       :.:.:.:.:.:.",
":.:.:.:.:.:.      6 A C C C C C C C M C M C C C C C M C B B B M V C C C V C C A 7       :.:.:.:.:.:.",
":.:.:.:.:.:.e g g 9 2 2 z C C C M B C B C C M C M C C C B B C C C B C C C z 2 2 9 g g e :.:.:.:.:.:.",
":.:.:.      ~ _ _ w     3 C C C C C M C M C M B M C M M C C C C C C C C C 3     w _ _ ~       :.:.:.",
":.:.:.      Q ) ) w     3 C C C C C C C B C M C C C C C C C C C C C C C C 2     w ) ) Q       :.:.:.",
":.:.:.      ^ #.#.r     % 7 6 6 7 7 z B M C B C C M M M C C C 0 6 6 7 7 7 %     e #.#.^       :.:.:.",
":.:.:.      / $.$.d                 # B C B M C C M C M M M C #                 d $.$./       :.:.:.",
":.:.:.      / %.%.d                 # B M C C C C C V C C V C #                 d %.%./       :.:.:.",
":.:.:.      ! ( ( q     . o . O - + - v v n v v v v v v v v v 1 $ * O . . .     q ( ( !       :.:.:.",
":.:.:.:.:.:.            + , > i D D j > > > : : , > > , , > , j D D i > , +             :.:.:.:.:.:.",
":.:.:.:.:.:.            + > > i D D j > > > , t > > > > > > > j D D i , , +             :.:.:.:.:.:.",
":.:.:.:.:.:.            + , > u l k j t t t t t t t t t t t t h k l u > , *             :.:.:.:.:.:.",
":.:.:.:.:.:.:.:.:.      + , > > > > i l l l l l D l l l l D l y > : > > , +       :.:.:.:.:.:.:.:.:.",
":.:.:.:.:.:.:.:.:.      + , , > > > u l l l l l D l D l D l D y > > > > , +       :.:.:.:.:.:.:.:.:.",
":.:.:.:.:.:.:.:.:.      + > > > > > t l l l l l l l l l l l l y > > > ; > +       :.:.:.:.:.:.:.:.:.",
":.:.:.:.:.:.:.:.:.            + : : > t , t t , t , t , , t , , > : O   .         :.:.:.:.:.:.:.:.:.",
":.:.:.:.:.:.:.:.:.            O , > > > > > > , , ; , : , , , , : : O             :.:.:.:.:.:.:.:.:.",
":.:.:.:.:.:.:.:.:.      X     O , > > > : , , , , : > , , , > > > ; O             :.:.:.:.:.:.:.:.:.",
":.:.:.:.:.:.      Z W W G c c 3 . . O , , : , : : : , , , : , O . . 3 c c G W { Z       :.:.:.:.:.:.",
":.:.:.:.:.:.      S o.X.T B C 7     . , > > > > : , : > , , , .     7 A C T X.o.S       :.:.:.:.:.:.",
":.:.:.:.:.:.      S X.X.T m C 7     . > > , > > > , > , , , > o     6 C B T X.X.S       :.:.:.:.:.:.",
":.:.:.      6 z 8 T X.o.Z # # 8 I I Z . . o o o o o o o o o o Z I I 8 # # Z X.X.T 0 z 6       :.:.:.",
":.:.:.      0 A C W X.X.b     8 X.o.I                         I X.o.8     n o.X.E C C z       :.:.:.",
":.:.:.      0 m m R X.X.n     8 X.X.K                         I X.o.p     n X.X.E m m 0       :.:.:.",
":.:.:.8 6 7 [ O.O.` K U 8     8 o.X./ S K S S S S S S S S S S } X.X.8     7 Y K ` O.O.[ 6 7 6 :.:.:.",
":.:.:.C C C @.-.-.[ m C 2     8 X.X.X.X.X.X.X.o.X.X.o.X.X.X.o.X.X.o.8     2 B m [ -.-.@.C C C :.:.:.",
":.:.:.C C C +.-.-.] B C 2     8 X.X.X.X.X.X.X.X.X.X.X. .X.X.X.X.X.X.8     2 C m ] -.-.@.C C C :.:.:.",
":.:.:.B C C +.-.-.] m C 3     8 X. .X.X.X.X.X.X.X.X. .X.X. .X.X.X.X.8     3 C m ] -.-.+.B B C :.:.:.",
":.:.:.C C C +.-.-.] m C 2     8 X.X.X. .X.X.X.X.X.X.X.X.X.X.X. .X.X.8     2 C m ] -.-.+.C B C :.:.:.",
":.:.:.C B C @.;.;.[ C C 2     8 X.X.X.X.X. .X.X.X. . .X.X.X.X.X.X.X.8     3 C m [ ;.;.@.B B C :.:.:.",
":.:.:.C C C R ' ' N 6 6 %     3 W W W X.X.X.X.X.X.X.X.X.X. .X.' E W 3     % 7 6 M ' ' R C C C :.:.:.",
":.:.:.:.:.:.                  < C m H X.X.X.X.X.X.X.X. .X.X.X.H B C <                   :.:.:.:.:.:.",
":.:.:.:.:.:.                  < C B J X.X.X.X.X.X.X.X.X.X.X.X.K V C <                   :.:.:.:.:.:.",
":.:.:.:.:.:.      . . o # % # 1 z 0 b L I I W ' ' ' ' W I L K b 0 z 1 % % O . o .       :.:.:.:.:.:.",
":.:.:.:.:.:.:.:.:., , > a C C 7           @ m B C B B M X           0 C C 8 : : , :.:.:.:.:.:.:.:.:.",
":.:.:.:.:.:.:.:.:.> , > a C C 7           @ C C C C C M X           6 C C a > : , :.:.:.:.:.:.:.:.:.",
":.:.:.:.:.:.:.:.:.= ; = 5 c c 6 X @ @ X X % c c c c c b % @ X @ @ X 6 c c 8 ; = = :.:.:.:.:.:.:.:.:.",
":.:.:.:.:.:.:.:.:.            < C m m m C c             c M M M m C <             :.:.:.:.:.:.:.:.:.",
":.:.:.:.:.:.:.:.:.            < C M C C C c             c B M B V C <             :.:.:.:.:.:.:.:.:.",
":.:.:.:.:.:.:.:.:.      X # # 6 F F F c m z             z m N C F H 6 # # X       :.:.:.:.:.:.:.:.:.",
":.:.:.:.:.:.:.:.:.      G *.&.&.*.=...X X   :.:.:.:.:.:.  X   ..=.*.&.&.*.H       :.:.:.:.:.:.:.:.:.",
":.:.:.:.:.:.:.:.:.      K ;.=.-.-.-.o.      :.:.:.:.:.:.      o.-.-.=.-.-.P       :.:.:.:.:.:.:.:.:.",
":.:.:.:.:.:.:.:.:.      K =.=.=.=.=...      :.:.:.:.:.:.      ..=.=.=.*.=.K       :.:.:.:.:.:.:.:.:.",
":.:.:.:.:.:.:.:.:.:.:.:.& & & & < & & :.:.:.:.:.:.:.:.:.:.:.:.& < & & & 1 & :.:.:.:.:.:.:.:.:.:.:.:.",
":.:.:.:.:.:.:.:.:.:.:.:.:.            :.:.:.:.:.:.:.:.:.:.:.:.            :.:.:.:.:.:.:.:.:.:.:.:.:.",
":.:.:.:.:.:.:.:.:.:.:.:.:.            :.:.:.:.:.:.:.:.:.:.:.:.            :.:.:.:.:.:.:.:.:.:.:.:.:.",
":.:.:.:.:.:.:.:.:.:.:.:.:.:.:.:.:.:.:.:.:.:.:.:.:.:.:.:.:.:.:.:.:.:.:.:.:.:.:.:.:.:.:.:.:.:.:.:.:.:."
};
